<?xml version="1.0"?>
<Project_Data Version="8.00">
<Project_Settings>
<ProfileName>MP4 with Smart Player (up to 480p)</ProfileName>
<ProjectWidth>1280</ProjectWidth>
<ProjectHeight>720</ProjectHeight>
<IsCustomProject>0</IsCustomProject>
<SavedProjectSettings>1</SavedProjectSettings>
<LastFlashTemplate>-1</LastFlashTemplate>
</Project_Settings>


<AutoSaveFile>C:\Users\phillip\AppData\Local\TechSmith\Camtasia Studio\8.0\Auto-Saves\soundsd58192.autosave.camproj</AutoSaveFile>

<ProjectID>90AE65DC-2BAA-4EC2-B948-EF271B0FDC21</ProjectID>

<PowerPointProject>0</PowerPointProject>

<PowerPointFilename></PowerPointFilename>


<Project_Notes>
</Project_Notes>

<Project_MetaData>
<Project_MetaData_Object>
<FieldArrayKey>8</FieldArrayKey>
<Value>sounds</Value>
</Project_MetaData_Object>
<Project_MetaData_Object>
<FieldArrayKey>13</FieldArrayKey>
<Value>2014-11-19 12:49:28 PM</Value>
</Project_MetaData_Object>
<Project_MetaData_Object>
<FieldArrayKey>16</FieldArrayKey>
<Value>ENU</Value>
</Project_MetaData_Object>
</Project_MetaData>

<CSMLData>
 <GoProject id="1" version="3.0" >
  <Project id="2" editRate="30/1" version="3.0" >
   <Author></Author>
   <Comment></Comment>
   <System></System>
   <SourceBin id="3"  >
     <Source id="4" src="capture-6.trec" lastMod="20141119T174332" rect="(0,0,80,88)" >
       <SourceTrack range="(0,11122)" type="0" editRate="30/1" trackRect="(0,0,80,88)" sampleRate="0/1" bitDepth="0" numChannels="0" filename="capture-6.trec!Strack0.tsc2" metaData="capture-6.trec;" />
       <SourceTrack range="(0,16362496)" type="2" editRate="44100/1" trackRect="(0,0,0,0)" sampleRate="44100/1" bitDepth="16" numChannels="2" filename="capture-6.trec!Maudio1.mp4" metaData="" />
       <SourceTrack range="(0,16362496)" type="2" editRate="44100/1" trackRect="(0,0,0,0)" sampleRate="44100/1" bitDepth="16" numChannels="2" filename="capture-6.trec!$audio2.mp4" metaData="" />
     </Source>
     <Source id="5" src="capture-5.trec" lastMod="20141119T173510" rect="(0,0,80,88)" >
       <SourceTrack range="(0,2110)" type="0" editRate="30/1" trackRect="(0,0,80,88)" sampleRate="0/1" bitDepth="0" numChannels="0" filename="capture-5.trec!Strack0.tsc2" metaData="capture-5.trec;" />
       <SourceTrack range="(0,3088384)" type="2" editRate="44100/1" trackRect="(0,0,0,0)" sampleRate="44100/1" bitDepth="16" numChannels="2" filename="capture-5.trec!Maudio1.mp4" metaData="" />
       <SourceTrack range="(0,3088384)" type="2" editRate="44100/1" trackRect="(0,0,0,0)" sampleRate="44100/1" bitDepth="16" numChannels="2" filename="capture-5.trec!$audio2.mp4" metaData="" />
     </Source>
     <Source id="6" src="conclusion.wav" lastMod="20141120T042539" rect="(0,0,0,0)" >
       <SourceTrack range="(0,1026666667)" type="2" editRate="10000000/1" trackRect="(0,0,0,0)" sampleRate="44100/1" bitDepth="16" numChannels="2" filename="" metaData="" />
     </Source>
     <Source id="7" src="scrumban.wav" lastMod="20141120T042546" rect="(0,0,0,0)" >
       <SourceTrack range="(0,1103000000)" type="2" editRate="10000000/1" trackRect="(0,0,0,0)" sampleRate="44100/1" bitDepth="16" numChannels="2" filename="" metaData="" />
     </Source>
     <Source id="8" src="references.wav" lastMod="20141120T051057" rect="(0,0,0,0)" >
       <SourceTrack range="(0,922666667)" type="2" editRate="10000000/1" trackRect="(0,0,0,0)" sampleRate="44100/1" bitDepth="16" numChannels="2" filename="" metaData="" />
     </Source>
     <Source id="9" src="capture-1.trec" lastMod="20141120T053824" rect="(0,0,1920,1080)" >
       <SourceTrack range="(0,19282)" type="0" editRate="30/1" trackRect="(0,0,1920,1080)" sampleRate="0/1" bitDepth="0" numChannels="0" filename="capture-1.trec!Strack0.tsc2" metaData="capture-1.trec;" />
     </Source>
     <Source id="10" src="capture-2.trec" lastMod="20141120T054754" rect="(0,0,1920,1080)" >
       <SourceTrack range="(0,2218)" type="0" editRate="30/1" trackRect="(0,0,1920,1080)" sampleRate="0/1" bitDepth="0" numChannels="0" filename="capture-2.trec!Strack0.tsc2" metaData="capture-2.trec;" />
     </Source>
   </SourceBin>
   <Timeline id="11"  >
    <Attributes>
     <Attribute id="12" value="1280" name="width"/>
     <Attribute id="13" value="720" name="height"/>
     <Attribute id="14" value="(0,0,0,255)" name="backgroundColor"/>
    </Attributes>
     <GenericMixer id="15"  name="Unified Mixer">
      <MetaData>
       <entry key="MixerType" val="TimelineMixer"/>
      </MetaData>
      <Tracks>
       <GenericTrack id="16"  >
        <Attributes>
         <Attribute id="17" value="" name="ident"/>
         <Attribute id="18" value="0" name="audioMuted"/>
         <Attribute id="19" value="0" name="videoHidden"/>
        </Attributes>
        <MetaData>
         <entry key="IsLocked" val="True"/>
         <entry key="WinTrackHeight" val="62"/>
        </MetaData>
        <Medias>
         <StitchedMedia id="20" start="0" duration="9031" scalar="1/1" mediaStart="0/1" mediaDuration="9031/1" minMediaStart="0/1" >
          <Transformer>
           <VectorParam id="21"  name="translation">
            <InterpolatingParam id="22" interp="linr"  time="0/1" value="0" leadInLength="0/1"  />
            <InterpolatingParam id="23" interp="linr"  time="0/1" value="0" leadInLength="0/1"  />
            <InterpolatingParam id="24" interp="linr"  time="0/1" value="0" leadInLength="0/1"  />
           </VectorParam>
           <VectorParam id="25"  name="rotation">
            <InterpolatingParam id="26" interp="linr"  time="0/1" value="0" leadInLength="0/1"  />
            <InterpolatingParam id="27" interp="linr"  time="0/1" value="0" leadInLength="0/1"  />
            <InterpolatingParam id="28" interp="linr"  time="0/1" value="0" leadInLength="0/1"  />
           </VectorParam>
           <VectorParam id="29"  name="shear">
            <InterpolatingParam id="30" interp="linr"  time="0/1" value="0" leadInLength="0/1"  />
            <InterpolatingParam id="31" interp="linr"  time="0/1" value="0" leadInLength="0/1"  />
            <InterpolatingParam id="32" interp="linr"  time="0/1" value="0" leadInLength="0/1"  />
           </VectorParam>
           <VectorParam id="33"  name="scale">
            <InterpolatingParam id="34" interp="linr"  time="0/1" value="1" leadInLength="0/1"  />
            <InterpolatingParam id="35" interp="linr"  time="0/1" value="1" leadInLength="0/1"  />
            <InterpolatingParam id="36" interp="linr"  time="0/1" value="1" leadInLength="0/1"  />
           </VectorParam>
           <VectorParam id="37"  name="anchor">
            <InterpolatingParam id="38" interp="linr"  time="0/1" value="0" leadInLength="0/1"  />
            <InterpolatingParam id="39" interp="linr"  time="0/1" value="0" leadInLength="0/1"  />
            <InterpolatingParam id="40" interp="linr"  time="0/1" value="0" leadInLength="0/1"  />
           </VectorParam>
          </Transformer>
          <Parameters>
           <InterpolatingParam id="41" interp="linr"  time="0/1" value="1" leadInLength="0/1"  name="cursorOpacity"/>
           <InterpolatingParam id="42" interp="linr"  time="0/1" value="1" leadInLength="0/1"  name="cursorScale"/>
           <InterpolatingParam id="43" interp="linr"  name="volume">
            <Keyframes>
            <Keyframe id="44"  time="0/1" value="1" leadInLength="0/1"  />
            <Keyframe id="45"  time="493/1" value="1" leadInLength="0/1"  />
            <Keyframe id="46"  time="494/1" value="0.51200000000000012" leadInLength="0/1"  />
            <Keyframe id="47"  time="524/1" value="0.51200000000000012" leadInLength="0/1"  />
            <Keyframe id="48"  time="525/1" value="1" leadInLength="0/1"  />
            </Keyframes>
           </InterpolatingParam>
           <Parameter id="49"  name="captions"/>
          </Parameters>
          <Attributes>
           <Attribute id="50" value="" name="ident"/>
           <Attribute id="51" value="0" name="mixToMono"/>
          </Attributes>
          <MetaData>
           <entry key="WinSubProjectDisplayName" val=""/>
          </MetaData>
          <ExtraData>
           <Entry key="ZoomPanBin">
            <ZoomPanBin id="52"  >
             <ZoomPanKeyframes>
             </ZoomPanKeyframes>
            </ZoomPanBin>
           </Entry>
           <Entry key="CursorEffectBin">
            <CursorEffectBin id="53"  >
             <CursorEffectKeyframes>
             </CursorEffectKeyframes>
            </CursorEffectBin>
           </Entry>
          </ExtraData>
          <GenericTrack id="54"  >
           <Attributes>
            <Attribute id="55" value="" name="ident"/>
            <Attribute id="56" value="0" name="audioMuted"/>
            <Attribute id="57" value="0" name="videoHidden"/>
           </Attributes>
           <MetaData>
            <entry key="IsLocked" val="False"/>
            <entry key="WinTrackHeight" val="0"/>
           </MetaData>
           <Medias>
            <AMFile id="58" start="0" duration="794" scalar="1/1" mediaStart="0/1" mediaDuration="794/1" trackNumber="1" src="4" channelNumber="0,1" >
             <Parameters>
              <InterpolatingParam id="59" interp="linr"  time="0/1" value="1" leadInLength="0/1"  name="volume"/>
              <Parameter id="60"  name="captions"/>
             </Parameters>
             <Attributes>
              <Attribute id="61" value="" name="ident"/>
              <Attribute id="62" value="44100" name="sampleRate"/>
              <Attribute id="63" value="16" name="bitDepth"/>
              <Attribute id="64" value="1" name="gain"/>
              <Attribute id="65" value="0" name="mixToMono"/>
             </Attributes>
             <MetaData>
              <entry key="WinSubProjectDisplayName" val=""/>
             </MetaData>
            </AMFile>
            <AMFile id="66" start="794" duration="1710" scalar="1/1" mediaStart="886/1" mediaDuration="1710/1" trackNumber="1" src="4" channelNumber="0,1" >
             <Parameters>
              <InterpolatingParam id="67" interp="linr"  time="0/1" value="1" leadInLength="0/1"  name="volume"/>
              <Parameter id="68"  name="captions"/>
             </Parameters>
             <Attributes>
              <Attribute id="69" value="" name="ident"/>
              <Attribute id="70" value="44100" name="sampleRate"/>
              <Attribute id="71" value="16" name="bitDepth"/>
              <Attribute id="72" value="1" name="gain"/>
              <Attribute id="73" value="0" name="mixToMono"/>
             </Attributes>
             <MetaData>
              <entry key="WinSubProjectDisplayName" val=""/>
             </MetaData>
            </AMFile>
            <AMFile id="74" start="2504" duration="10" scalar="1/1" mediaStart="3066/1" mediaDuration="10/1" trackNumber="1" src="4" channelNumber="0,1" >
             <Parameters>
              <InterpolatingParam id="75" interp="linr"  time="0/1" value="1" leadInLength="0/1"  name="volume"/>
              <Parameter id="76"  name="captions"/>
             </Parameters>
             <Attributes>
              <Attribute id="77" value="" name="ident"/>
              <Attribute id="78" value="44100" name="sampleRate"/>
              <Attribute id="79" value="16" name="bitDepth"/>
              <Attribute id="80" value="1" name="gain"/>
              <Attribute id="81" value="0" name="mixToMono"/>
             </Attributes>
             <MetaData>
              <entry key="WinSubProjectDisplayName" val=""/>
             </MetaData>
            </AMFile>
            <AMFile id="82" start="2514" duration="414" scalar="1/1" mediaStart="3220/1" mediaDuration="414/1" trackNumber="1" src="4" channelNumber="0,1" >
             <Parameters>
              <InterpolatingParam id="83" interp="linr"  time="0/1" value="1" leadInLength="0/1"  name="volume"/>
              <Parameter id="84"  name="captions"/>
             </Parameters>
             <Attributes>
              <Attribute id="85" value="" name="ident"/>
              <Attribute id="86" value="44100" name="sampleRate"/>
              <Attribute id="87" value="16" name="bitDepth"/>
              <Attribute id="88" value="1" name="gain"/>
              <Attribute id="89" value="0" name="mixToMono"/>
             </Attributes>
             <MetaData>
              <entry key="WinSubProjectDisplayName" val=""/>
             </MetaData>
            </AMFile>
            <AMFile id="90" start="2928" duration="20" scalar="1/1" mediaStart="3678/1" mediaDuration="20/1" trackNumber="1" src="4" channelNumber="0,1" >
             <Parameters>
              <InterpolatingParam id="91" interp="linr"  time="0/1" value="1" leadInLength="0/1"  name="volume"/>
              <Parameter id="92"  name="captions"/>
             </Parameters>
             <Attributes>
              <Attribute id="93" value="" name="ident"/>
              <Attribute id="94" value="44100" name="sampleRate"/>
              <Attribute id="95" value="16" name="bitDepth"/>
              <Attribute id="96" value="1" name="gain"/>
              <Attribute id="97" value="0" name="mixToMono"/>
             </Attributes>
             <MetaData>
              <entry key="WinSubProjectDisplayName" val=""/>
             </MetaData>
            </AMFile>
            <AMFile id="98" start="2948" duration="1358" scalar="1/1" mediaStart="3922/1" mediaDuration="1358/1" trackNumber="1" src="4" channelNumber="0,1" >
             <Parameters>
              <InterpolatingParam id="99" interp="linr"  time="0/1" value="1" leadInLength="0/1"  name="volume"/>
              <Parameter id="100"  name="captions"/>
             </Parameters>
             <Attributes>
              <Attribute id="101" value="" name="ident"/>
              <Attribute id="102" value="44100" name="sampleRate"/>
              <Attribute id="103" value="16" name="bitDepth"/>
              <Attribute id="104" value="1" name="gain"/>
              <Attribute id="105" value="0" name="mixToMono"/>
             </Attributes>
             <MetaData>
              <entry key="WinSubProjectDisplayName" val=""/>
             </MetaData>
            </AMFile>
            <AMFile id="106" start="4306" duration="608" scalar="1/1" mediaStart="5322/1" mediaDuration="608/1" trackNumber="1" src="4" channelNumber="0,1" >
             <Parameters>
              <InterpolatingParam id="107" interp="linr"  time="0/1" value="1" leadInLength="0/1"  name="volume"/>
              <Parameter id="108"  name="captions"/>
             </Parameters>
             <Attributes>
              <Attribute id="109" value="" name="ident"/>
              <Attribute id="110" value="44100" name="sampleRate"/>
              <Attribute id="111" value="16" name="bitDepth"/>
              <Attribute id="112" value="1" name="gain"/>
              <Attribute id="113" value="0" name="mixToMono"/>
             </Attributes>
             <MetaData>
              <entry key="WinSubProjectDisplayName" val=""/>
             </MetaData>
            </AMFile>
            <AMFile id="114" start="4914" duration="576" scalar="1/1" mediaStart="6012/1" mediaDuration="576/1" trackNumber="1" src="4" channelNumber="0,1" >
             <Parameters>
              <InterpolatingParam id="115" interp="linr"  time="0/1" value="1" leadInLength="0/1"  name="volume"/>
              <Parameter id="116"  name="captions"/>
             </Parameters>
             <Attributes>
              <Attribute id="117" value="" name="ident"/>
              <Attribute id="118" value="44100" name="sampleRate"/>
              <Attribute id="119" value="16" name="bitDepth"/>
              <Attribute id="120" value="1" name="gain"/>
              <Attribute id="121" value="0" name="mixToMono"/>
             </Attributes>
             <MetaData>
              <entry key="WinSubProjectDisplayName" val=""/>
             </MetaData>
            </AMFile>
            <AMFile id="122" start="5490" duration="453" scalar="1/1" mediaStart="6790/1" mediaDuration="453/1" trackNumber="1" src="4" channelNumber="0,1" >
             <Parameters>
              <InterpolatingParam id="123" interp="linr"  time="0/1" value="1" leadInLength="0/1"  name="volume"/>
              <Parameter id="124"  name="captions"/>
             </Parameters>
             <Attributes>
              <Attribute id="125" value="" name="ident"/>
              <Attribute id="126" value="44100" name="sampleRate"/>
              <Attribute id="127" value="16" name="bitDepth"/>
              <Attribute id="128" value="1" name="gain"/>
              <Attribute id="129" value="0" name="mixToMono"/>
             </Attributes>
             <MetaData>
              <entry key="WinSubProjectDisplayName" val=""/>
             </MetaData>
            </AMFile>
            <AMFile id="130" start="5943" duration="244" scalar="1/1" mediaStart="7295/1" mediaDuration="244/1" trackNumber="1" src="4" channelNumber="0,1" >
             <Parameters>
              <InterpolatingParam id="131" interp="linr"  time="0/1" value="1" leadInLength="0/1"  name="volume"/>
              <Parameter id="132"  name="captions"/>
             </Parameters>
             <Attributes>
              <Attribute id="133" value="" name="ident"/>
              <Attribute id="134" value="44100" name="sampleRate"/>
              <Attribute id="135" value="16" name="bitDepth"/>
              <Attribute id="136" value="1" name="gain"/>
              <Attribute id="137" value="0" name="mixToMono"/>
             </Attributes>
             <MetaData>
              <entry key="WinSubProjectDisplayName" val=""/>
             </MetaData>
            </AMFile>
            <AMFile id="138" start="6187" duration="605" scalar="1/1" mediaStart="7713/1" mediaDuration="605/1" trackNumber="1" src="4" channelNumber="0,1" >
             <Parameters>
              <InterpolatingParam id="139" interp="linr"  time="0/1" value="1" leadInLength="0/1"  name="volume"/>
              <Parameter id="140"  name="captions"/>
             </Parameters>
             <Attributes>
              <Attribute id="141" value="" name="ident"/>
              <Attribute id="142" value="44100" name="sampleRate"/>
              <Attribute id="143" value="16" name="bitDepth"/>
              <Attribute id="144" value="1" name="gain"/>
              <Attribute id="145" value="0" name="mixToMono"/>
             </Attributes>
             <MetaData>
              <entry key="WinSubProjectDisplayName" val=""/>
             </MetaData>
            </AMFile>
            <AMFile id="146" start="6792" duration="6" scalar="1/1" mediaStart="8492/1" mediaDuration="6/1" trackNumber="1" src="4" channelNumber="0,1" >
             <Parameters>
              <InterpolatingParam id="147" interp="linr"  time="0/1" value="1" leadInLength="0/1"  name="volume"/>
              <Parameter id="148"  name="captions"/>
             </Parameters>
             <Attributes>
              <Attribute id="149" value="" name="ident"/>
              <Attribute id="150" value="44100" name="sampleRate"/>
              <Attribute id="151" value="16" name="bitDepth"/>
              <Attribute id="152" value="1" name="gain"/>
              <Attribute id="153" value="0" name="mixToMono"/>
             </Attributes>
             <MetaData>
              <entry key="WinSubProjectDisplayName" val=""/>
             </MetaData>
            </AMFile>
            <AMFile id="154" start="6798" duration="1993" scalar="1/1" mediaStart="8584/1" mediaDuration="1993/1" trackNumber="1" src="4" channelNumber="0,1" >
             <Parameters>
              <InterpolatingParam id="155" interp="linr"  time="0/1" value="1" leadInLength="0/1"  name="volume"/>
              <Parameter id="156"  name="captions"/>
             </Parameters>
             <Attributes>
              <Attribute id="157" value="" name="ident"/>
              <Attribute id="158" value="44100" name="sampleRate"/>
              <Attribute id="159" value="16" name="bitDepth"/>
              <Attribute id="160" value="1" name="gain"/>
              <Attribute id="161" value="0" name="mixToMono"/>
             </Attributes>
             <MetaData>
              <entry key="WinSubProjectDisplayName" val=""/>
             </MetaData>
            </AMFile>
            <AMFile id="162" start="8791" duration="383" scalar="1/1" mediaStart="10747/1" mediaDuration="383/1" trackNumber="1" src="4" channelNumber="0,1" >
             <Parameters>
              <InterpolatingParam id="163" interp="linr"  time="0/1" value="1" leadInLength="0/1"  name="volume"/>
              <Parameter id="164"  name="captions"/>
             </Parameters>
             <Attributes>
              <Attribute id="165" value="" name="ident"/>
              <Attribute id="166" value="44100" name="sampleRate"/>
              <Attribute id="167" value="16" name="bitDepth"/>
              <Attribute id="168" value="1" name="gain"/>
              <Attribute id="169" value="0" name="mixToMono"/>
             </Attributes>
             <MetaData>
              <entry key="WinSubProjectDisplayName" val=""/>
             </MetaData>
            </AMFile>
           </Medias>
          </GenericTrack>
         </StitchedMedia>
         <StitchedMedia id="170" start="9031" duration="3016" scalar="1/1" mediaStart="0/1" mediaDuration="3016/1" minMediaStart="0/1" >
          <Transformer>
           <VectorParam id="171"  name="translation">
            <InterpolatingParam id="172" interp="linr"  time="0/1" value="0" leadInLength="0/1"  />
            <InterpolatingParam id="173" interp="linr"  time="0/1" value="0" leadInLength="0/1"  />
            <InterpolatingParam id="174" interp="linr"  time="0/1" value="0" leadInLength="0/1"  />
           </VectorParam>
           <VectorParam id="175"  name="rotation">
            <InterpolatingParam id="176" interp="linr"  time="0/1" value="0" leadInLength="0/1"  />
            <InterpolatingParam id="177" interp="linr"  time="0/1" value="0" leadInLength="0/1"  />
            <InterpolatingParam id="178" interp="linr"  time="0/1" value="0" leadInLength="0/1"  />
           </VectorParam>
           <VectorParam id="179"  name="shear">
            <InterpolatingParam id="180" interp="linr"  time="0/1" value="0" leadInLength="0/1"  />
            <InterpolatingParam id="181" interp="linr"  time="0/1" value="0" leadInLength="0/1"  />
            <InterpolatingParam id="182" interp="linr"  time="0/1" value="0" leadInLength="0/1"  />
           </VectorParam>
           <VectorParam id="183"  name="scale">
            <InterpolatingParam id="184" interp="linr"  time="0/1" value="1" leadInLength="0/1"  />
            <InterpolatingParam id="185" interp="linr"  time="0/1" value="1" leadInLength="0/1"  />
            <InterpolatingParam id="186" interp="linr"  time="0/1" value="1" leadInLength="0/1"  />
           </VectorParam>
           <VectorParam id="187"  name="anchor">
            <InterpolatingParam id="188" interp="linr"  time="0/1" value="0" leadInLength="0/1"  />
            <InterpolatingParam id="189" interp="linr"  time="0/1" value="0" leadInLength="0/1"  />
            <InterpolatingParam id="190" interp="linr"  time="0/1" value="0" leadInLength="0/1"  />
           </VectorParam>
          </Transformer>
          <Parameters>
           <InterpolatingParam id="191" interp="linr"  time="0/1" value="1" leadInLength="0/1"  name="cursorOpacity"/>
           <InterpolatingParam id="192" interp="linr"  time="0/1" value="1" leadInLength="0/1"  name="cursorScale"/>
           <InterpolatingParam id="193" interp="linr"  time="0/1" value="1" leadInLength="0/1"  name="volume"/>
           <Parameter id="194"  name="captions"/>
          </Parameters>
          <Attributes>
           <Attribute id="195" value="" name="ident"/>
           <Attribute id="196" value="0" name="mixToMono"/>
          </Attributes>
          <MetaData>
           <entry key="WinSubProjectDisplayName" val=""/>
          </MetaData>
          <ExtraData>
           <Entry key="ZoomPanBin">
            <ZoomPanBin id="197"  >
             <ZoomPanKeyframes>
             </ZoomPanKeyframes>
            </ZoomPanBin>
           </Entry>
           <Entry key="CursorEffectBin">
            <CursorEffectBin id="198"  >
             <CursorEffectKeyframes>
             </CursorEffectKeyframes>
            </CursorEffectBin>
           </Entry>
          </ExtraData>
          <GenericTrack id="199"  >
           <Attributes>
            <Attribute id="200" value="" name="ident"/>
            <Attribute id="201" value="0" name="audioMuted"/>
            <Attribute id="202" value="0" name="videoHidden"/>
           </Attributes>
           <MetaData>
            <entry key="IsLocked" val="False"/>
            <entry key="WinTrackHeight" val="0"/>
           </MetaData>
           <Medias>
            <AMFile id="203" start="0" duration="421" scalar="1/1" mediaStart="0/1" mediaDuration="421/1" trackNumber="0" src="7" channelNumber="0,1" >
             <Parameters>
              <InterpolatingParam id="204" interp="linr"  time="0/1" value="1" leadInLength="0/1"  name="volume"/>
              <Parameter id="205"  name="captions"/>
             </Parameters>
             <Attributes>
              <Attribute id="206" value="" name="ident"/>
              <Attribute id="207" value="44100" name="sampleRate"/>
              <Attribute id="208" value="16" name="bitDepth"/>
              <Attribute id="209" value="1" name="gain"/>
              <Attribute id="210" value="0" name="mixToMono"/>
             </Attributes>
             <MetaData>
              <entry key="WinSubProjectDisplayName" val=""/>
             </MetaData>
            </AMFile>
            <AMFile id="211" start="421" duration="1144" scalar="1/1" mediaStart="557/1" mediaDuration="1144/1" trackNumber="0" src="7" channelNumber="0,1" >
             <Parameters>
              <InterpolatingParam id="212" interp="linr"  time="0/1" value="1" leadInLength="0/1"  name="volume"/>
              <Parameter id="213"  name="captions"/>
             </Parameters>
             <Attributes>
              <Attribute id="214" value="" name="ident"/>
              <Attribute id="215" value="44100" name="sampleRate"/>
              <Attribute id="216" value="16" name="bitDepth"/>
              <Attribute id="217" value="1" name="gain"/>
              <Attribute id="218" value="0" name="mixToMono"/>
             </Attributes>
             <MetaData>
              <entry key="WinSubProjectDisplayName" val=""/>
             </MetaData>
            </AMFile>
            <AMFile id="219" start="1565" duration="483" scalar="1/1" mediaStart="1763/1" mediaDuration="483/1" trackNumber="0" src="7" channelNumber="0,1" >
             <Parameters>
              <InterpolatingParam id="220" interp="linr"  time="0/1" value="1" leadInLength="0/1"  name="volume"/>
              <Parameter id="221"  name="captions"/>
             </Parameters>
             <Attributes>
              <Attribute id="222" value="" name="ident"/>
              <Attribute id="223" value="44100" name="sampleRate"/>
              <Attribute id="224" value="16" name="bitDepth"/>
              <Attribute id="225" value="1" name="gain"/>
              <Attribute id="226" value="0" name="mixToMono"/>
             </Attributes>
             <MetaData>
              <entry key="WinSubProjectDisplayName" val=""/>
             </MetaData>
            </AMFile>
            <AMFile id="227" start="2048" duration="1017" scalar="1/1" mediaStart="2292/1" mediaDuration="1017/1" trackNumber="0" src="7" channelNumber="0,1" >
             <Parameters>
              <InterpolatingParam id="228" interp="linr"  time="0/1" value="1" leadInLength="0/1"  name="volume"/>
              <Parameter id="229"  name="captions"/>
             </Parameters>
             <Attributes>
              <Attribute id="230" value="" name="ident"/>
              <Attribute id="231" value="44100" name="sampleRate"/>
              <Attribute id="232" value="16" name="bitDepth"/>
              <Attribute id="233" value="1" name="gain"/>
              <Attribute id="234" value="0" name="mixToMono"/>
             </Attributes>
             <MetaData>
              <entry key="WinSubProjectDisplayName" val=""/>
             </MetaData>
            </AMFile>
           </Medias>
          </GenericTrack>
         </StitchedMedia>
         <StitchedMedia id="235" start="12047" duration="2016" scalar="1/1" mediaStart="5/1" mediaDuration="2016/1" minMediaStart="0/1" >
          <Transformer>
           <VectorParam id="236"  name="translation">
            <InterpolatingParam id="237" interp="linr"  time="0/1" value="0" leadInLength="0/1"  />
            <InterpolatingParam id="238" interp="linr"  time="0/1" value="0" leadInLength="0/1"  />
            <InterpolatingParam id="239" interp="linr"  time="0/1" value="0" leadInLength="0/1"  />
           </VectorParam>
           <VectorParam id="240"  name="rotation">
            <InterpolatingParam id="241" interp="linr"  time="0/1" value="0" leadInLength="0/1"  />
            <InterpolatingParam id="242" interp="linr"  time="0/1" value="0" leadInLength="0/1"  />
            <InterpolatingParam id="243" interp="linr"  time="0/1" value="0" leadInLength="0/1"  />
           </VectorParam>
           <VectorParam id="244"  name="shear">
            <InterpolatingParam id="245" interp="linr"  time="0/1" value="0" leadInLength="0/1"  />
            <InterpolatingParam id="246" interp="linr"  time="0/1" value="0" leadInLength="0/1"  />
            <InterpolatingParam id="247" interp="linr"  time="0/1" value="0" leadInLength="0/1"  />
           </VectorParam>
           <VectorParam id="248"  name="scale">
            <InterpolatingParam id="249" interp="linr"  time="0/1" value="1" leadInLength="0/1"  />
            <InterpolatingParam id="250" interp="linr"  time="0/1" value="1" leadInLength="0/1"  />
            <InterpolatingParam id="251" interp="linr"  time="0/1" value="1" leadInLength="0/1"  />
           </VectorParam>
           <VectorParam id="252"  name="anchor">
            <InterpolatingParam id="253" interp="linr"  time="0/1" value="0" leadInLength="0/1"  />
            <InterpolatingParam id="254" interp="linr"  time="0/1" value="0" leadInLength="0/1"  />
            <InterpolatingParam id="255" interp="linr"  time="0/1" value="0" leadInLength="0/1"  />
           </VectorParam>
          </Transformer>
          <Parameters>
           <InterpolatingParam id="256" interp="linr"  time="0/1" value="1" leadInLength="0/1"  name="cursorOpacity"/>
           <InterpolatingParam id="257" interp="linr"  time="0/1" value="1" leadInLength="0/1"  name="cursorScale"/>
           <InterpolatingParam id="258" interp="linr"  time="0/1" value="1" leadInLength="0/1"  name="volume"/>
           <Parameter id="259"  name="captions"/>
          </Parameters>
          <Attributes>
           <Attribute id="260" value="" name="ident"/>
           <Attribute id="261" value="0" name="mixToMono"/>
          </Attributes>
          <MetaData>
           <entry key="WinSubProjectDisplayName" val=""/>
          </MetaData>
          <ExtraData>
           <Entry key="ZoomPanBin">
            <ZoomPanBin id="262"  >
             <ZoomPanKeyframes>
             </ZoomPanKeyframes>
            </ZoomPanBin>
           </Entry>
           <Entry key="CursorEffectBin">
            <CursorEffectBin id="263"  >
             <CursorEffectKeyframes>
             </CursorEffectKeyframes>
            </CursorEffectBin>
           </Entry>
          </ExtraData>
          <GenericTrack id="264"  >
           <Attributes>
            <Attribute id="265" value="" name="ident"/>
            <Attribute id="266" value="0" name="audioMuted"/>
            <Attribute id="267" value="0" name="videoHidden"/>
           </Attributes>
           <MetaData>
            <entry key="IsLocked" val="False"/>
            <entry key="WinTrackHeight" val="0"/>
           </MetaData>
           <Medias>
            <AMFile id="268" start="0" duration="1465" scalar="1/1" mediaStart="0/1" mediaDuration="1465/1" trackNumber="1" src="5" channelNumber="0,1" >
             <Parameters>
              <InterpolatingParam id="269" interp="linr"  time="0/1" value="1" leadInLength="0/1"  name="volume"/>
              <Parameter id="270"  name="captions"/>
             </Parameters>
             <Attributes>
              <Attribute id="271" value="" name="ident"/>
              <Attribute id="272" value="44100" name="sampleRate"/>
              <Attribute id="273" value="16" name="bitDepth"/>
              <Attribute id="274" value="1" name="gain"/>
              <Attribute id="275" value="0" name="mixToMono"/>
             </Attributes>
             <MetaData>
              <entry key="WinSubProjectDisplayName" val=""/>
             </MetaData>
            </AMFile>
            <AMFile id="276" start="1465" duration="595" scalar="1/1" mediaStart="1505/1" mediaDuration="595/1" trackNumber="1" src="5" channelNumber="0,1" >
             <Parameters>
              <InterpolatingParam id="277" interp="linr"  time="0/1" value="1" leadInLength="0/1"  name="volume"/>
              <Parameter id="278"  name="captions"/>
             </Parameters>
             <Attributes>
              <Attribute id="279" value="" name="ident"/>
              <Attribute id="280" value="44100" name="sampleRate"/>
              <Attribute id="281" value="16" name="bitDepth"/>
              <Attribute id="282" value="1" name="gain"/>
              <Attribute id="283" value="0" name="mixToMono"/>
             </Attributes>
             <MetaData>
              <entry key="WinSubProjectDisplayName" val=""/>
             </MetaData>
            </AMFile>
           </Medias>
          </GenericTrack>
         </StitchedMedia>
         <StitchedMedia id="284" start="14063" duration="2455" scalar="1/1" mediaStart="0/1" mediaDuration="2455/1" minMediaStart="0/1" >
          <Transformer>
           <VectorParam id="285"  name="translation">
            <InterpolatingParam id="286" interp="linr"  time="0/1" value="0" leadInLength="0/1"  />
            <InterpolatingParam id="287" interp="linr"  time="0/1" value="0" leadInLength="0/1"  />
            <InterpolatingParam id="288" interp="linr"  time="0/1" value="0" leadInLength="0/1"  />
           </VectorParam>
           <VectorParam id="289"  name="rotation">
            <InterpolatingParam id="290" interp="linr"  time="0/1" value="0" leadInLength="0/1"  />
            <InterpolatingParam id="291" interp="linr"  time="0/1" value="0" leadInLength="0/1"  />
            <InterpolatingParam id="292" interp="linr"  time="0/1" value="0" leadInLength="0/1"  />
           </VectorParam>
           <VectorParam id="293"  name="shear">
            <InterpolatingParam id="294" interp="linr"  time="0/1" value="0" leadInLength="0/1"  />
            <InterpolatingParam id="295" interp="linr"  time="0/1" value="0" leadInLength="0/1"  />
            <InterpolatingParam id="296" interp="linr"  time="0/1" value="0" leadInLength="0/1"  />
           </VectorParam>
           <VectorParam id="297"  name="scale">
            <InterpolatingParam id="298" interp="linr"  time="0/1" value="1" leadInLength="0/1"  />
            <InterpolatingParam id="299" interp="linr"  time="0/1" value="1" leadInLength="0/1"  />
            <InterpolatingParam id="300" interp="linr"  time="0/1" value="1" leadInLength="0/1"  />
           </VectorParam>
           <VectorParam id="301"  name="anchor">
            <InterpolatingParam id="302" interp="linr"  time="0/1" value="0" leadInLength="0/1"  />
            <InterpolatingParam id="303" interp="linr"  time="0/1" value="0" leadInLength="0/1"  />
            <InterpolatingParam id="304" interp="linr"  time="0/1" value="0" leadInLength="0/1"  />
           </VectorParam>
          </Transformer>
          <Parameters>
           <InterpolatingParam id="305" interp="linr"  time="0/1" value="1" leadInLength="0/1"  name="cursorOpacity"/>
           <InterpolatingParam id="306" interp="linr"  time="0/1" value="1" leadInLength="0/1"  name="cursorScale"/>
           <InterpolatingParam id="307" interp="linr"  time="0/1" value="1" leadInLength="0/1"  name="volume"/>
           <Parameter id="308"  name="captions"/>
          </Parameters>
          <Attributes>
           <Attribute id="309" value="" name="ident"/>
           <Attribute id="310" value="0" name="mixToMono"/>
          </Attributes>
          <MetaData>
           <entry key="WinSubProjectDisplayName" val=""/>
          </MetaData>
          <ExtraData>
           <Entry key="ZoomPanBin">
            <ZoomPanBin id="311"  >
             <ZoomPanKeyframes>
             </ZoomPanKeyframes>
            </ZoomPanBin>
           </Entry>
           <Entry key="CursorEffectBin">
            <CursorEffectBin id="312"  >
             <CursorEffectKeyframes>
             </CursorEffectKeyframes>
            </CursorEffectBin>
           </Entry>
          </ExtraData>
          <GenericTrack id="313"  >
           <Attributes>
            <Attribute id="314" value="" name="ident"/>
            <Attribute id="315" value="0" name="audioMuted"/>
            <Attribute id="316" value="0" name="videoHidden"/>
           </Attributes>
           <MetaData>
            <entry key="IsLocked" val="False"/>
            <entry key="WinTrackHeight" val="0"/>
           </MetaData>
           <Medias>
            <AMFile id="317" start="0" duration="216" scalar="1/1" mediaStart="0/1" mediaDuration="216/1" trackNumber="0" src="6" channelNumber="0,1" >
             <Parameters>
              <InterpolatingParam id="318" interp="linr"  time="0/1" value="1" leadInLength="0/1"  name="volume"/>
              <Parameter id="319"  name="captions"/>
             </Parameters>
             <Attributes>
              <Attribute id="320" value="" name="ident"/>
              <Attribute id="321" value="44100" name="sampleRate"/>
              <Attribute id="322" value="16" name="bitDepth"/>
              <Attribute id="323" value="1" name="gain"/>
              <Attribute id="324" value="0" name="mixToMono"/>
             </Attributes>
             <MetaData>
              <entry key="WinSubProjectDisplayName" val=""/>
             </MetaData>
            </AMFile>
            <AMFile id="325" start="216" duration="467" scalar="1/1" mediaStart="298/1" mediaDuration="467/1" trackNumber="0" src="6" channelNumber="0,1" >
             <Parameters>
              <InterpolatingParam id="326" interp="linr"  time="0/1" value="1" leadInLength="0/1"  name="volume"/>
              <Parameter id="327"  name="captions"/>
             </Parameters>
             <Attributes>
              <Attribute id="328" value="" name="ident"/>
              <Attribute id="329" value="44100" name="sampleRate"/>
              <Attribute id="330" value="16" name="bitDepth"/>
              <Attribute id="331" value="1" name="gain"/>
              <Attribute id="332" value="0" name="mixToMono"/>
             </Attributes>
             <MetaData>
              <entry key="WinSubProjectDisplayName" val=""/>
             </MetaData>
            </AMFile>
            <AMFile id="333" start="683" duration="589" scalar="1/1" mediaStart="791/1" mediaDuration="589/1" trackNumber="0" src="6" channelNumber="0,1" >
             <Parameters>
              <InterpolatingParam id="334" interp="linr"  time="0/1" value="1" leadInLength="0/1"  name="volume"/>
              <Parameter id="335"  name="captions"/>
             </Parameters>
             <Attributes>
              <Attribute id="336" value="" name="ident"/>
              <Attribute id="337" value="44100" name="sampleRate"/>
              <Attribute id="338" value="16" name="bitDepth"/>
              <Attribute id="339" value="1" name="gain"/>
              <Attribute id="340" value="0" name="mixToMono"/>
             </Attributes>
             <MetaData>
              <entry key="WinSubProjectDisplayName" val=""/>
             </MetaData>
            </AMFile>
            <AMFile id="341" start="1272" duration="584" scalar="1/1" mediaStart="1576/1" mediaDuration="584/1" trackNumber="0" src="6" channelNumber="0,1" >
             <Parameters>
              <InterpolatingParam id="342" interp="linr"  time="0/1" value="1" leadInLength="0/1"  name="volume"/>
              <Parameter id="343"  name="captions"/>
             </Parameters>
             <Attributes>
              <Attribute id="344" value="" name="ident"/>
              <Attribute id="345" value="44100" name="sampleRate"/>
              <Attribute id="346" value="16" name="bitDepth"/>
              <Attribute id="347" value="1" name="gain"/>
              <Attribute id="348" value="0" name="mixToMono"/>
             </Attributes>
             <MetaData>
              <entry key="WinSubProjectDisplayName" val=""/>
             </MetaData>
            </AMFile>
            <AMFile id="349" start="1856" duration="238" scalar="1/1" mediaStart="2180/1" mediaDuration="238/1" trackNumber="0" src="6" channelNumber="0,1" >
             <Parameters>
              <InterpolatingParam id="350" interp="linr"  time="0/1" value="1" leadInLength="0/1"  name="volume"/>
              <Parameter id="351"  name="captions"/>
             </Parameters>
             <Attributes>
              <Attribute id="352" value="" name="ident"/>
              <Attribute id="353" value="44100" name="sampleRate"/>
              <Attribute id="354" value="16" name="bitDepth"/>
              <Attribute id="355" value="1" name="gain"/>
              <Attribute id="356" value="0" name="mixToMono"/>
             </Attributes>
             <MetaData>
              <entry key="WinSubProjectDisplayName" val=""/>
             </MetaData>
            </AMFile>
            <AMFile id="357" start="2094" duration="331" scalar="1/1" mediaStart="2616/1" mediaDuration="331/1" trackNumber="0" src="6" channelNumber="0,1" >
             <Parameters>
              <InterpolatingParam id="358" interp="linr"  time="0/1" value="1" leadInLength="0/1"  name="volume"/>
              <Parameter id="359"  name="captions"/>
             </Parameters>
             <Attributes>
              <Attribute id="360" value="" name="ident"/>
              <Attribute id="361" value="44100" name="sampleRate"/>
              <Attribute id="362" value="16" name="bitDepth"/>
              <Attribute id="363" value="1" name="gain"/>
              <Attribute id="364" value="0" name="mixToMono"/>
             </Attributes>
             <MetaData>
              <entry key="WinSubProjectDisplayName" val=""/>
             </MetaData>
            </AMFile>
            <AMFile id="365" start="2425" duration="30" scalar="1/1" mediaStart="3050/1" mediaDuration="30/1" trackNumber="0" src="6" channelNumber="0,1" >
             <Parameters>
              <InterpolatingParam id="366" interp="linr"  time="0/1" value="1" leadInLength="0/1"  name="volume"/>
              <Parameter id="367"  name="captions"/>
             </Parameters>
             <Attributes>
              <Attribute id="368" value="" name="ident"/>
              <Attribute id="369" value="44100" name="sampleRate"/>
              <Attribute id="370" value="16" name="bitDepth"/>
              <Attribute id="371" value="1" name="gain"/>
              <Attribute id="372" value="0" name="mixToMono"/>
             </Attributes>
             <MetaData>
              <entry key="WinSubProjectDisplayName" val=""/>
             </MetaData>
            </AMFile>
           </Medias>
          </GenericTrack>
         </StitchedMedia>
         <StitchedMedia id="373" start="16518" duration="2183" scalar="1/1" mediaStart="0/1" mediaDuration="2183/1" minMediaStart="0/1" >
          <Transformer>
           <VectorParam id="374"  name="translation">
            <InterpolatingParam id="375" interp="linr"  time="0/1" value="0" leadInLength="0/1"  />
            <InterpolatingParam id="376" interp="linr"  time="0/1" value="0" leadInLength="0/1"  />
            <InterpolatingParam id="377" interp="linr"  time="0/1" value="0" leadInLength="0/1"  />
           </VectorParam>
           <VectorParam id="378"  name="rotation">
            <InterpolatingParam id="379" interp="linr"  time="0/1" value="0" leadInLength="0/1"  />
            <InterpolatingParam id="380" interp="linr"  time="0/1" value="0" leadInLength="0/1"  />
            <InterpolatingParam id="381" interp="linr"  time="0/1" value="0" leadInLength="0/1"  />
           </VectorParam>
           <VectorParam id="382"  name="shear">
            <InterpolatingParam id="383" interp="linr"  time="0/1" value="0" leadInLength="0/1"  />
            <InterpolatingParam id="384" interp="linr"  time="0/1" value="0" leadInLength="0/1"  />
            <InterpolatingParam id="385" interp="linr"  time="0/1" value="0" leadInLength="0/1"  />
           </VectorParam>
           <VectorParam id="386"  name="scale">
            <InterpolatingParam id="387" interp="linr"  time="0/1" value="1" leadInLength="0/1"  />
            <InterpolatingParam id="388" interp="linr"  time="0/1" value="1" leadInLength="0/1"  />
            <InterpolatingParam id="389" interp="linr"  time="0/1" value="1" leadInLength="0/1"  />
           </VectorParam>
           <VectorParam id="390"  name="anchor">
            <InterpolatingParam id="391" interp="linr"  time="0/1" value="0" leadInLength="0/1"  />
            <InterpolatingParam id="392" interp="linr"  time="0/1" value="0" leadInLength="0/1"  />
            <InterpolatingParam id="393" interp="linr"  time="0/1" value="0" leadInLength="0/1"  />
           </VectorParam>
          </Transformer>
          <Parameters>
           <InterpolatingParam id="394" interp="linr"  time="0/1" value="1" leadInLength="0/1"  name="cursorOpacity"/>
           <InterpolatingParam id="395" interp="linr"  time="0/1" value="1" leadInLength="0/1"  name="cursorScale"/>
           <InterpolatingParam id="396" interp="linr"  time="0/1" value="1" leadInLength="0/1"  name="volume"/>
           <Parameter id="397"  name="captions"/>
          </Parameters>
          <Attributes>
           <Attribute id="398" value="" name="ident"/>
           <Attribute id="399" value="0" name="mixToMono"/>
          </Attributes>
          <MetaData>
           <entry key="WinSubProjectDisplayName" val=""/>
          </MetaData>
          <ExtraData>
           <Entry key="ZoomPanBin">
            <ZoomPanBin id="400"  >
             <ZoomPanKeyframes>
             </ZoomPanKeyframes>
            </ZoomPanBin>
           </Entry>
           <Entry key="CursorEffectBin">
            <CursorEffectBin id="401"  >
             <CursorEffectKeyframes>
             </CursorEffectKeyframes>
            </CursorEffectBin>
           </Entry>
          </ExtraData>
          <GenericTrack id="402"  >
           <Attributes>
            <Attribute id="403" value="" name="ident"/>
            <Attribute id="404" value="0" name="audioMuted"/>
            <Attribute id="405" value="0" name="videoHidden"/>
           </Attributes>
           <MetaData>
            <entry key="IsLocked" val="False"/>
            <entry key="WinTrackHeight" val="0"/>
           </MetaData>
           <Medias>
            <AMFile id="406" start="0" duration="428" scalar="1/1" mediaStart="0/1" mediaDuration="428/1" trackNumber="0" src="8" channelNumber="0,1" >
             <Parameters>
              <InterpolatingParam id="407" interp="linr"  time="0/1" value="1" leadInLength="0/1"  name="volume"/>
              <Parameter id="408"  name="captions"/>
             </Parameters>
             <Attributes>
              <Attribute id="409" value="" name="ident"/>
              <Attribute id="410" value="44100" name="sampleRate"/>
              <Attribute id="411" value="16" name="bitDepth"/>
              <Attribute id="412" value="1" name="gain"/>
              <Attribute id="413" value="0" name="mixToMono"/>
             </Attributes>
             <MetaData>
              <entry key="WinSubProjectDisplayName" val=""/>
             </MetaData>
            </AMFile>
            <AMFile id="414" start="428" duration="255" scalar="1/1" mediaStart="668/1" mediaDuration="255/1" trackNumber="0" src="8" channelNumber="0,1" >
             <Parameters>
              <InterpolatingParam id="415" interp="linr"  time="0/1" value="1" leadInLength="0/1"  name="volume"/>
              <Parameter id="416"  name="captions"/>
             </Parameters>
             <Attributes>
              <Attribute id="417" value="" name="ident"/>
              <Attribute id="418" value="44100" name="sampleRate"/>
              <Attribute id="419" value="16" name="bitDepth"/>
              <Attribute id="420" value="1" name="gain"/>
              <Attribute id="421" value="0" name="mixToMono"/>
             </Attributes>
             <MetaData>
              <entry key="WinSubProjectDisplayName" val=""/>
             </MetaData>
            </AMFile>
            <AMFile id="422" start="683" duration="1099" scalar="1/1" mediaStart="1177/1" mediaDuration="1099/1" trackNumber="0" src="8" channelNumber="0,1" >
             <Parameters>
              <InterpolatingParam id="423" interp="linr"  time="0/1" value="1" leadInLength="0/1"  name="volume"/>
              <Parameter id="424"  name="captions"/>
             </Parameters>
             <Attributes>
              <Attribute id="425" value="" name="ident"/>
              <Attribute id="426" value="44100" name="sampleRate"/>
              <Attribute id="427" value="16" name="bitDepth"/>
              <Attribute id="428" value="1" name="gain"/>
              <Attribute id="429" value="0" name="mixToMono"/>
             </Attributes>
             <MetaData>
              <entry key="WinSubProjectDisplayName" val=""/>
             </MetaData>
            </AMFile>
            <AMFile id="430" start="1782" duration="100" scalar="1/1" mediaStart="2342/1" mediaDuration="100/1" trackNumber="0" src="8" channelNumber="0,1" >
             <Parameters>
              <InterpolatingParam id="431" interp="linr"  time="0/1" value="1" leadInLength="0/1"  name="volume"/>
              <Parameter id="432"  name="captions"/>
             </Parameters>
             <Attributes>
              <Attribute id="433" value="" name="ident"/>
              <Attribute id="434" value="44100" name="sampleRate"/>
              <Attribute id="435" value="16" name="bitDepth"/>
              <Attribute id="436" value="1" name="gain"/>
              <Attribute id="437" value="0" name="mixToMono"/>
             </Attributes>
             <MetaData>
              <entry key="WinSubProjectDisplayName" val=""/>
             </MetaData>
            </AMFile>
            <AMFile id="438" start="1882" duration="301" scalar="1/1" mediaStart="2467/1" mediaDuration="301/1" trackNumber="0" src="8" channelNumber="0,1" >
             <Parameters>
              <InterpolatingParam id="439" interp="linr"  time="0/1" value="1" leadInLength="0/1"  name="volume"/>
              <Parameter id="440"  name="captions"/>
             </Parameters>
             <Attributes>
              <Attribute id="441" value="" name="ident"/>
              <Attribute id="442" value="44100" name="sampleRate"/>
              <Attribute id="443" value="16" name="bitDepth"/>
              <Attribute id="444" value="1" name="gain"/>
              <Attribute id="445" value="0" name="mixToMono"/>
             </Attributes>
             <MetaData>
              <entry key="WinSubProjectDisplayName" val=""/>
             </MetaData>
            </AMFile>
           </Medias>
          </GenericTrack>
         </StitchedMedia>
        </Medias>
       </GenericTrack>
       <GenericTrack id="446"  >
        <Attributes>
         <Attribute id="447" value="" name="ident"/>
         <Attribute id="448" value="0" name="audioMuted"/>
         <Attribute id="449" value="0" name="videoHidden"/>
        </Attributes>
        <MetaData>
         <entry key="IsLocked" val="False"/>
         <entry key="WinTrackHeight" val="62"/>
        </MetaData>
        <Medias>
         <ScreenVMFile id="450" start="0" duration="397" scalar="1/1" mediaStart="316/1" mediaDuration="397/1" trackNumber="0" src="9" >
          <Transformer>
           <VectorParam id="451"  name="translation">
            <InterpolatingParam id="452" interp="linr"  time="-9999999/1" value="3.6517159666487171e-011" leadInLength="0/1"  />
            <InterpolatingParam id="453" interp="linr"  time="-9999999/1" value="2.764011242107645e-011" leadInLength="0/1"  />
            <InterpolatingParam id="454" interp="linr"  time="-9999999/1" value="0" leadInLength="0/1"  />
           </VectorParam>
           <VectorParam id="455"  name="rotation">
            <InterpolatingParam id="456" interp="linr"  time="-9999999/1" value="0" leadInLength="0/1"  />
            <InterpolatingParam id="457" interp="linr"  time="-9999999/1" value="0" leadInLength="0/1"  />
            <InterpolatingParam id="458" interp="linr"  time="-9999999/1" value="0" leadInLength="0/1"  />
           </VectorParam>
           <VectorParam id="459"  name="shear">
            <InterpolatingParam id="460" interp="linr"  time="-9999999/1" value="0" leadInLength="0/1"  />
            <InterpolatingParam id="461" interp="linr"  time="-9999999/1" value="0" leadInLength="0/1"  />
            <InterpolatingParam id="462" interp="linr"  time="-9999999/1" value="0" leadInLength="0/1"  />
           </VectorParam>
           <VectorParam id="463"  name="scale">
            <InterpolatingParam id="464" interp="linr"  time="-9999999/1" value="0.6666666666667781" leadInLength="0/1"  />
            <InterpolatingParam id="465" interp="linr"  time="-9999999/1" value="0.66666666666677832" leadInLength="0/1"  />
            <InterpolatingParam id="466" interp="linr"  time="-9999999/1" value="1" leadInLength="0/1"  />
           </VectorParam>
           <VectorParam id="467"  name="anchor">
            <InterpolatingParam id="468" interp="linr"  time="0/1" value="0" leadInLength="0/1"  />
            <InterpolatingParam id="469" interp="linr"  time="0/1" value="0" leadInLength="0/1"  />
            <InterpolatingParam id="470" interp="linr"  time="0/1" value="0" leadInLength="0/1"  />
           </VectorParam>
          </Transformer>
          <Parameters>
           <VectorParam id="471"  name="sourceCrop">
            <InterpolatingParam id="472" interp="linr"  time="0/1" value="0" leadInLength="0/1"  />
            <InterpolatingParam id="473" interp="linr"  time="0/1" value="0" leadInLength="0/1"  />
            <InterpolatingParam id="474" interp="linr"  time="0/1" value="0" leadInLength="0/1"  />
            <InterpolatingParam id="475" interp="linr"  time="0/1" value="0" leadInLength="0/1"  />
           </VectorParam>
           <VectorParam id="476"  name="geometryCrop">
            <InterpolatingParam id="477" interp="linr"  time="-9999999/1" value="0" leadInLength="0/1"  />
            <InterpolatingParam id="478" interp="linr"  time="-9999999/1" value="0" leadInLength="0/1"  />
            <InterpolatingParam id="479" interp="linr"  time="-9999999/1" value="0" leadInLength="0/1"  />
            <InterpolatingParam id="480" interp="linr"  time="-9999999/1" value="0" leadInLength="0/1"  />
           </VectorParam>
           <InterpolatingParam id="481" interp="linr"  time="-9999999/1" value="1" leadInLength="0/1"  name="opacity"/>
           <InterpolatingParam id="482" interp="linr"  time="0/1" value="1" leadInLength="0/1"  name="cursorOpacity"/>
           <InterpolatingParam id="483" interp="linr"  time="0/1" value="1" leadInLength="0/1"  name="cursorScale"/>
          </Parameters>
          <Effects>
           <GenericEffect id="484" name = "CursorBaseEffectName" >
            <Parameters>
            <InterpolatingParam id="485" interp="linr"  time="-9999999/1" value="1" leadInLength="0/1"   name="cursorSize"/>
            <InterpolatingParam id="486" interp="linr"  time="-9999999/1" value="0" leadInLength="0/1"   name="highlightBlurRadius"/>
            <InterpolatingParam id="487" interp="linr"  time="-9999999/1" value="0" leadInLength="0/1"   name="highlightColorBlue"/>
            <InterpolatingParam id="488" interp="linr"  time="-9999999/1" value="255" leadInLength="0/1"   name="highlightColorGreen"/>
            <InterpolatingParam id="489" interp="linr"  time="-9999999/1" value="255" leadInLength="0/1"   name="highlightColorRed"/>
            <InterpolatingParam id="490" interp="linr"  time="-9999999/1" value="5" leadInLength="0/1"   name="highlightFeatherSize"/>
            <InterpolatingParam id="491" interp="linr"  time="-9999999/1" value="2" leadInLength="0/1"   name="highlightMagnification"/>
            <InterpolatingParam id="492" interp="linr"  time="-9999999/1" value="1" leadInLength="0/1"   name="highlightOpacity"/>
            <InterpolatingParam id="493" interp="linr"  time="-9999999/1" value="45" leadInLength="0/1"   name="highlightSize"/>
            <Parameter id="494"   name="highlightType">
             <Keyframes>
             <Keyframe id="495"  time="-9999999/1" value="0" leadInLength="0/1"  />
             </Keyframes>
            </Parameter>
            <InterpolatingParam id="496" interp="linr"  time="-9999999/1" value="0" leadInLength="0/1"   name="leftClickColorBlue"/>
            <InterpolatingParam id="497" interp="linr"  time="-9999999/1" value="0" leadInLength="0/1"   name="leftClickColorGreen"/>
            <InterpolatingParam id="498" interp="linr"  time="-9999999/1" value="255" leadInLength="0/1"   name="leftClickColorRed"/>
            <InterpolatingParam id="499" interp="linr"  time="-9999999/1" value="0.80000000000000004" leadInLength="0/1"   name="leftClickDuration"/>
            <InterpolatingParam id="500" interp="linr"  time="-9999999/1" value="20" leadInLength="0/1"   name="leftClickSize"/>
            <Parameter id="501"   name="leftClickSoundFilename">
             <Keyframes>
             <Keyframe id="502"  time="-9999999/1" value="" leadInLength="0/1"  />
             </Keyframes>
            </Parameter>
            <InterpolatingParam id="503" interp="linr"  time="-9999999/1" value="1" leadInLength="0/1"   name="leftClickSoundVolume"/>
            <Parameter id="504"   name="leftClickType">
             <Keyframes>
             <Keyframe id="505"  time="-9999999/1" value="0" leadInLength="0/1"  />
             </Keyframes>
            </Parameter>
            <InterpolatingParam id="506" interp="linr"  time="-9999999/1" value="1" leadInLength="0/1"   name="opacity"/>
            <InterpolatingParam id="507" interp="linr"  time="-9999999/1" value="255" leadInLength="0/1"   name="rightClickColorBlue"/>
            <InterpolatingParam id="508" interp="linr"  time="-9999999/1" value="0" leadInLength="0/1"   name="rightClickColorGreen"/>
            <InterpolatingParam id="509" interp="linr"  time="-9999999/1" value="0" leadInLength="0/1"   name="rightClickColorRed"/>
            <InterpolatingParam id="510" interp="linr"  time="-9999999/1" value="0.80000000000000004" leadInLength="0/1"   name="rightClickDuration"/>
            <InterpolatingParam id="511" interp="linr"  time="-9999999/1" value="20" leadInLength="0/1"   name="rightClickSize"/>
            <Parameter id="512"   name="rightClickSoundFilename">
             <Keyframes>
             <Keyframe id="513"  time="-9999999/1" value="" leadInLength="0/1"  />
             </Keyframes>
            </Parameter>
            <InterpolatingParam id="514" interp="linr"  time="-9999999/1" value="1" leadInLength="0/1"   name="rightClickSoundVolume"/>
            <Parameter id="515"   name="rightClickType">
             <Keyframes>
             <Keyframe id="516"  time="-9999999/1" value="0" leadInLength="0/1"  />
             </Keyframes>
            </Parameter>
            </Parameters>
           </GenericEffect>
          </Effects>
          <Attributes>
           <Attribute id="517" value="" name="ident"/>
          </Attributes>
          <MetaData>
           <entry key="AutoAppliedSmartFocus" val="False"/>
           <entry key="WinSubProjectDisplayName" val=""/>
          </MetaData>
          <ExtraData>
           <Entry key="ZoomPanBin">
            <ZoomPanBin id="518"  >
             <ZoomPanKeyframes>
              <ZoomPanKeyframe id="519" timeRangeEnd="-9999999/1" timeRangeDuration="0/1" interpolaterName="linr"  />
             </ZoomPanKeyframes>
            </ZoomPanBin>
           </Entry>
           <Entry key="CursorEffectBin">
            <CursorEffectBin id="520"  >
             <CursorEffectKeyframes>
              <CursorEffectKeyframe id="521" timeRangeEnd="-9999999/1" timeRangeDuration="0/1" interpolaterName=""  />
             </CursorEffectKeyframes>
            </CursorEffectBin>
           </Entry>
          </ExtraData>
         </ScreenVMFile>
         <ScreenVMFile id="522" start="397" duration="214" scalar="1/1" mediaStart="257/1" mediaDuration="214/1" trackNumber="0" src="9" >
          <Transformer>
           <VectorParam id="523"  name="translation">
            <InterpolatingParam id="524" interp="linr"  time="-9999999/1" value="3.6517159666487171e-011" leadInLength="0/1"  />
            <InterpolatingParam id="525" interp="linr"  time="-9999999/1" value="2.764011242107645e-011" leadInLength="0/1"  />
            <InterpolatingParam id="526" interp="linr"  time="-9999999/1" value="0" leadInLength="0/1"  />
           </VectorParam>
           <VectorParam id="527"  name="rotation">
            <InterpolatingParam id="528" interp="linr"  time="-9999999/1" value="0" leadInLength="0/1"  />
            <InterpolatingParam id="529" interp="linr"  time="-9999999/1" value="0" leadInLength="0/1"  />
            <InterpolatingParam id="530" interp="linr"  time="-9999999/1" value="0" leadInLength="0/1"  />
           </VectorParam>
           <VectorParam id="531"  name="shear">
            <InterpolatingParam id="532" interp="linr"  time="-9999999/1" value="0" leadInLength="0/1"  />
            <InterpolatingParam id="533" interp="linr"  time="-9999999/1" value="0" leadInLength="0/1"  />
            <InterpolatingParam id="534" interp="linr"  time="-9999999/1" value="0" leadInLength="0/1"  />
           </VectorParam>
           <VectorParam id="535"  name="scale">
            <InterpolatingParam id="536" interp="linr"  time="-9999999/1" value="0.6666666666667781" leadInLength="0/1"  />
            <InterpolatingParam id="537" interp="linr"  time="-9999999/1" value="0.66666666666677832" leadInLength="0/1"  />
            <InterpolatingParam id="538" interp="linr"  time="-9999999/1" value="1" leadInLength="0/1"  />
           </VectorParam>
           <VectorParam id="539"  name="anchor">
            <InterpolatingParam id="540" interp="linr"  time="0/1" value="0" leadInLength="0/1"  />
            <InterpolatingParam id="541" interp="linr"  time="0/1" value="0" leadInLength="0/1"  />
            <InterpolatingParam id="542" interp="linr"  time="0/1" value="0" leadInLength="0/1"  />
           </VectorParam>
          </Transformer>
          <Parameters>
           <VectorParam id="543"  name="sourceCrop">
            <InterpolatingParam id="544" interp="linr"  time="0/1" value="0" leadInLength="0/1"  />
            <InterpolatingParam id="545" interp="linr"  time="0/1" value="0" leadInLength="0/1"  />
            <InterpolatingParam id="546" interp="linr"  time="0/1" value="0" leadInLength="0/1"  />
            <InterpolatingParam id="547" interp="linr"  time="0/1" value="0" leadInLength="0/1"  />
           </VectorParam>
           <VectorParam id="548"  name="geometryCrop">
            <InterpolatingParam id="549" interp="linr"  time="-9999999/1" value="0" leadInLength="0/1"  />
            <InterpolatingParam id="550" interp="linr"  time="-9999999/1" value="0" leadInLength="0/1"  />
            <InterpolatingParam id="551" interp="linr"  time="-9999999/1" value="0" leadInLength="0/1"  />
            <InterpolatingParam id="552" interp="linr"  time="-9999999/1" value="0" leadInLength="0/1"  />
           </VectorParam>
           <InterpolatingParam id="553" interp="linr"  time="-9999999/1" value="1" leadInLength="0/1"  name="opacity"/>
           <InterpolatingParam id="554" interp="linr"  time="0/1" value="1" leadInLength="0/1"  name="cursorOpacity"/>
           <InterpolatingParam id="555" interp="linr"  time="0/1" value="1" leadInLength="0/1"  name="cursorScale"/>
          </Parameters>
          <Effects>
           <GenericEffect id="556" name = "CursorBaseEffectName" >
            <Parameters>
            <InterpolatingParam id="557" interp="linr"  time="-9999999/1" value="1" leadInLength="0/1"   name="cursorSize"/>
            <InterpolatingParam id="558" interp="linr"  time="-9999999/1" value="0" leadInLength="0/1"   name="highlightBlurRadius"/>
            <InterpolatingParam id="559" interp="linr"  time="-9999999/1" value="0" leadInLength="0/1"   name="highlightColorBlue"/>
            <InterpolatingParam id="560" interp="linr"  time="-9999999/1" value="255" leadInLength="0/1"   name="highlightColorGreen"/>
            <InterpolatingParam id="561" interp="linr"  time="-9999999/1" value="255" leadInLength="0/1"   name="highlightColorRed"/>
            <InterpolatingParam id="562" interp="linr"  time="-9999999/1" value="5" leadInLength="0/1"   name="highlightFeatherSize"/>
            <InterpolatingParam id="563" interp="linr"  time="-9999999/1" value="2" leadInLength="0/1"   name="highlightMagnification"/>
            <InterpolatingParam id="564" interp="linr"  time="-9999999/1" value="1" leadInLength="0/1"   name="highlightOpacity"/>
            <InterpolatingParam id="565" interp="linr"  time="-9999999/1" value="45" leadInLength="0/1"   name="highlightSize"/>
            <Parameter id="566"   name="highlightType">
             <Keyframes>
             <Keyframe id="567"  time="-9999999/1" value="0" leadInLength="0/1"  />
             </Keyframes>
            </Parameter>
            <InterpolatingParam id="568" interp="linr"  time="-9999999/1" value="0" leadInLength="0/1"   name="leftClickColorBlue"/>
            <InterpolatingParam id="569" interp="linr"  time="-9999999/1" value="0" leadInLength="0/1"   name="leftClickColorGreen"/>
            <InterpolatingParam id="570" interp="linr"  time="-9999999/1" value="255" leadInLength="0/1"   name="leftClickColorRed"/>
            <InterpolatingParam id="571" interp="linr"  time="-9999999/1" value="0.80000000000000004" leadInLength="0/1"   name="leftClickDuration"/>
            <InterpolatingParam id="572" interp="linr"  time="-9999999/1" value="20" leadInLength="0/1"   name="leftClickSize"/>
            <Parameter id="573"   name="leftClickSoundFilename">
             <Keyframes>
             <Keyframe id="574"  time="-9999999/1" value="" leadInLength="0/1"  />
             </Keyframes>
            </Parameter>
            <InterpolatingParam id="575" interp="linr"  time="-9999999/1" value="1" leadInLength="0/1"   name="leftClickSoundVolume"/>
            <Parameter id="576"   name="leftClickType">
             <Keyframes>
             <Keyframe id="577"  time="-9999999/1" value="0" leadInLength="0/1"  />
             </Keyframes>
            </Parameter>
            <InterpolatingParam id="578" interp="linr"  time="-9999999/1" value="1" leadInLength="0/1"   name="opacity"/>
            <InterpolatingParam id="579" interp="linr"  time="-9999999/1" value="255" leadInLength="0/1"   name="rightClickColorBlue"/>
            <InterpolatingParam id="580" interp="linr"  time="-9999999/1" value="0" leadInLength="0/1"   name="rightClickColorGreen"/>
            <InterpolatingParam id="581" interp="linr"  time="-9999999/1" value="0" leadInLength="0/1"   name="rightClickColorRed"/>
            <InterpolatingParam id="582" interp="linr"  time="-9999999/1" value="0.80000000000000004" leadInLength="0/1"   name="rightClickDuration"/>
            <InterpolatingParam id="583" interp="linr"  time="-9999999/1" value="20" leadInLength="0/1"   name="rightClickSize"/>
            <Parameter id="584"   name="rightClickSoundFilename">
             <Keyframes>
             <Keyframe id="585"  time="-9999999/1" value="" leadInLength="0/1"  />
             </Keyframes>
            </Parameter>
            <InterpolatingParam id="586" interp="linr"  time="-9999999/1" value="1" leadInLength="0/1"   name="rightClickSoundVolume"/>
            <Parameter id="587"   name="rightClickType">
             <Keyframes>
             <Keyframe id="588"  time="-9999999/1" value="0" leadInLength="0/1"  />
             </Keyframes>
            </Parameter>
            </Parameters>
           </GenericEffect>
          </Effects>
          <Attributes>
           <Attribute id="589" value="" name="ident"/>
          </Attributes>
          <MetaData>
           <entry key="AutoAppliedSmartFocus" val="False"/>
           <entry key="WinSubProjectDisplayName" val=""/>
          </MetaData>
          <ExtraData>
           <Entry key="ZoomPanBin">
            <ZoomPanBin id="590"  >
             <ZoomPanKeyframes>
              <ZoomPanKeyframe id="591" timeRangeEnd="-9999999/1" timeRangeDuration="0/1" interpolaterName="linr"  />
             </ZoomPanKeyframes>
            </ZoomPanBin>
           </Entry>
           <Entry key="CursorEffectBin">
            <CursorEffectBin id="592"  >
             <CursorEffectKeyframes>
              <CursorEffectKeyframe id="593" timeRangeEnd="-9999999/1" timeRangeDuration="0/1" interpolaterName=""  />
             </CursorEffectKeyframes>
            </CursorEffectBin>
           </Entry>
          </ExtraData>
         </ScreenVMFile>
         <ScreenVMFile id="594" start="611" duration="13349" scalar="1/1" mediaStart="713/1" mediaDuration="13349/1" trackNumber="0" src="9" >
          <Transformer>
           <VectorParam id="595"  name="translation">
            <InterpolatingParam id="596" interp="linr"  time="-9999999/1" value="3.6517159666487171e-011" leadInLength="0/1"  />
            <InterpolatingParam id="597" interp="linr"  time="-9999999/1" value="2.764011242107645e-011" leadInLength="0/1"  />
            <InterpolatingParam id="598" interp="linr"  time="-9999999/1" value="0" leadInLength="0/1"  />
           </VectorParam>
           <VectorParam id="599"  name="rotation">
            <InterpolatingParam id="600" interp="linr"  time="-9999999/1" value="0" leadInLength="0/1"  />
            <InterpolatingParam id="601" interp="linr"  time="-9999999/1" value="0" leadInLength="0/1"  />
            <InterpolatingParam id="602" interp="linr"  time="-9999999/1" value="0" leadInLength="0/1"  />
           </VectorParam>
           <VectorParam id="603"  name="shear">
            <InterpolatingParam id="604" interp="linr"  time="-9999999/1" value="0" leadInLength="0/1"  />
            <InterpolatingParam id="605" interp="linr"  time="-9999999/1" value="0" leadInLength="0/1"  />
            <InterpolatingParam id="606" interp="linr"  time="-9999999/1" value="0" leadInLength="0/1"  />
           </VectorParam>
           <VectorParam id="607"  name="scale">
            <InterpolatingParam id="608" interp="linr"  time="-9999999/1" value="0.6666666666667781" leadInLength="0/1"  />
            <InterpolatingParam id="609" interp="linr"  time="-9999999/1" value="0.66666666666677832" leadInLength="0/1"  />
            <InterpolatingParam id="610" interp="linr"  time="-9999999/1" value="1" leadInLength="0/1"  />
           </VectorParam>
           <VectorParam id="611"  name="anchor">
            <InterpolatingParam id="612" interp="linr"  time="0/1" value="0" leadInLength="0/1"  />
            <InterpolatingParam id="613" interp="linr"  time="0/1" value="0" leadInLength="0/1"  />
            <InterpolatingParam id="614" interp="linr"  time="0/1" value="0" leadInLength="0/1"  />
           </VectorParam>
          </Transformer>
          <Parameters>
           <VectorParam id="615"  name="sourceCrop">
            <InterpolatingParam id="616" interp="linr"  time="0/1" value="0" leadInLength="0/1"  />
            <InterpolatingParam id="617" interp="linr"  time="0/1" value="0" leadInLength="0/1"  />
            <InterpolatingParam id="618" interp="linr"  time="0/1" value="0" leadInLength="0/1"  />
            <InterpolatingParam id="619" interp="linr"  time="0/1" value="0" leadInLength="0/1"  />
           </VectorParam>
           <VectorParam id="620"  name="geometryCrop">
            <InterpolatingParam id="621" interp="linr"  time="-9999999/1" value="0" leadInLength="0/1"  />
            <InterpolatingParam id="622" interp="linr"  time="-9999999/1" value="0" leadInLength="0/1"  />
            <InterpolatingParam id="623" interp="linr"  time="-9999999/1" value="0" leadInLength="0/1"  />
            <InterpolatingParam id="624" interp="linr"  time="-9999999/1" value="0" leadInLength="0/1"  />
           </VectorParam>
           <InterpolatingParam id="625" interp="linr"  time="-9999999/1" value="1" leadInLength="0/1"  name="opacity"/>
           <InterpolatingParam id="626" interp="linr"  time="0/1" value="1" leadInLength="0/1"  name="cursorOpacity"/>
           <InterpolatingParam id="627" interp="linr"  time="0/1" value="1" leadInLength="0/1"  name="cursorScale"/>
          </Parameters>
          <Effects>
           <GenericEffect id="628" name = "CursorBaseEffectName" >
            <Parameters>
            <InterpolatingParam id="629" interp="linr"  time="-9999999/1" value="1" leadInLength="0/1"   name="cursorSize"/>
            <InterpolatingParam id="630" interp="linr"  time="-9999999/1" value="0" leadInLength="0/1"   name="highlightBlurRadius"/>
            <InterpolatingParam id="631" interp="linr"  time="-9999999/1" value="0" leadInLength="0/1"   name="highlightColorBlue"/>
            <InterpolatingParam id="632" interp="linr"  time="-9999999/1" value="255" leadInLength="0/1"   name="highlightColorGreen"/>
            <InterpolatingParam id="633" interp="linr"  time="-9999999/1" value="255" leadInLength="0/1"   name="highlightColorRed"/>
            <InterpolatingParam id="634" interp="linr"  time="-9999999/1" value="5" leadInLength="0/1"   name="highlightFeatherSize"/>
            <InterpolatingParam id="635" interp="linr"  time="-9999999/1" value="2" leadInLength="0/1"   name="highlightMagnification"/>
            <InterpolatingParam id="636" interp="linr"  time="-9999999/1" value="1" leadInLength="0/1"   name="highlightOpacity"/>
            <InterpolatingParam id="637" interp="linr"  time="-9999999/1" value="45" leadInLength="0/1"   name="highlightSize"/>
            <Parameter id="638"   name="highlightType">
             <Keyframes>
             <Keyframe id="639"  time="-9999999/1" value="0" leadInLength="0/1"  />
             </Keyframes>
            </Parameter>
            <InterpolatingParam id="640" interp="linr"  time="-9999999/1" value="0" leadInLength="0/1"   name="leftClickColorBlue"/>
            <InterpolatingParam id="641" interp="linr"  time="-9999999/1" value="0" leadInLength="0/1"   name="leftClickColorGreen"/>
            <InterpolatingParam id="642" interp="linr"  time="-9999999/1" value="255" leadInLength="0/1"   name="leftClickColorRed"/>
            <InterpolatingParam id="643" interp="linr"  time="-9999999/1" value="0.80000000000000004" leadInLength="0/1"   name="leftClickDuration"/>
            <InterpolatingParam id="644" interp="linr"  time="-9999999/1" value="20" leadInLength="0/1"   name="leftClickSize"/>
            <Parameter id="645"   name="leftClickSoundFilename">
             <Keyframes>
             <Keyframe id="646"  time="-9999999/1" value="" leadInLength="0/1"  />
             </Keyframes>
            </Parameter>
            <InterpolatingParam id="647" interp="linr"  time="-9999999/1" value="1" leadInLength="0/1"   name="leftClickSoundVolume"/>
            <Parameter id="648"   name="leftClickType">
             <Keyframes>
             <Keyframe id="649"  time="-9999999/1" value="0" leadInLength="0/1"  />
             </Keyframes>
            </Parameter>
            <InterpolatingParam id="650" interp="linr"  time="-9999999/1" value="1" leadInLength="0/1"   name="opacity"/>
            <InterpolatingParam id="651" interp="linr"  time="-9999999/1" value="255" leadInLength="0/1"   name="rightClickColorBlue"/>
            <InterpolatingParam id="652" interp="linr"  time="-9999999/1" value="0" leadInLength="0/1"   name="rightClickColorGreen"/>
            <InterpolatingParam id="653" interp="linr"  time="-9999999/1" value="0" leadInLength="0/1"   name="rightClickColorRed"/>
            <InterpolatingParam id="654" interp="linr"  time="-9999999/1" value="0.80000000000000004" leadInLength="0/1"   name="rightClickDuration"/>
            <InterpolatingParam id="655" interp="linr"  time="-9999999/1" value="20" leadInLength="0/1"   name="rightClickSize"/>
            <Parameter id="656"   name="rightClickSoundFilename">
             <Keyframes>
             <Keyframe id="657"  time="-9999999/1" value="" leadInLength="0/1"  />
             </Keyframes>
            </Parameter>
            <InterpolatingParam id="658" interp="linr"  time="-9999999/1" value="1" leadInLength="0/1"   name="rightClickSoundVolume"/>
            <Parameter id="659"   name="rightClickType">
             <Keyframes>
             <Keyframe id="660"  time="-9999999/1" value="0" leadInLength="0/1"  />
             </Keyframes>
            </Parameter>
            </Parameters>
           </GenericEffect>
          </Effects>
          <Attributes>
           <Attribute id="661" value="" name="ident"/>
          </Attributes>
          <MetaData>
           <entry key="AutoAppliedSmartFocus" val="False"/>
           <entry key="WinSubProjectDisplayName" val=""/>
          </MetaData>
          <ExtraData>
           <Entry key="ZoomPanBin">
            <ZoomPanBin id="662"  >
             <ZoomPanKeyframes>
              <ZoomPanKeyframe id="663" timeRangeEnd="-9999999/1" timeRangeDuration="0/1" interpolaterName="linr"  />
             </ZoomPanKeyframes>
            </ZoomPanBin>
           </Entry>
           <Entry key="CursorEffectBin">
            <CursorEffectBin id="664"  >
             <CursorEffectKeyframes>
              <CursorEffectKeyframe id="665" timeRangeEnd="-9999999/1" timeRangeDuration="0/1" interpolaterName=""  />
             </CursorEffectKeyframes>
            </CursorEffectBin>
           </Entry>
          </ExtraData>
         </ScreenVMFile>
         <ScreenVMFile id="666" start="13960" duration="103" scalar="1/1" mediaStart="1713/1" mediaDuration="103/1" trackNumber="0" src="10" >
          <Transformer>
           <VectorParam id="667"  name="translation">
            <InterpolatingParam id="668" interp="linr"  time="-9999999/1" value="0" leadInLength="0/1"  />
            <InterpolatingParam id="669" interp="linr"  time="-9999999/1" value="0" leadInLength="0/1"  />
            <InterpolatingParam id="670" interp="linr"  time="-9999999/1" value="0" leadInLength="0/1"  />
           </VectorParam>
           <VectorParam id="671"  name="rotation">
            <InterpolatingParam id="672" interp="linr"  time="-9999999/1" value="0" leadInLength="0/1"  />
            <InterpolatingParam id="673" interp="linr"  time="-9999999/1" value="0" leadInLength="0/1"  />
            <InterpolatingParam id="674" interp="linr"  time="-9999999/1" value="0" leadInLength="0/1"  />
           </VectorParam>
           <VectorParam id="675"  name="shear">
            <InterpolatingParam id="676" interp="linr"  time="-9999999/1" value="0" leadInLength="0/1"  />
            <InterpolatingParam id="677" interp="linr"  time="-9999999/1" value="0" leadInLength="0/1"  />
            <InterpolatingParam id="678" interp="linr"  time="-9999999/1" value="0" leadInLength="0/1"  />
           </VectorParam>
           <VectorParam id="679"  name="scale">
            <InterpolatingParam id="680" interp="linr"  time="-9999999/1" value="0.66666666666666663" leadInLength="0/1"  />
            <InterpolatingParam id="681" interp="linr"  time="-9999999/1" value="0.66666666666666663" leadInLength="0/1"  />
            <InterpolatingParam id="682" interp="linr"  time="-9999999/1" value="1" leadInLength="0/1"  />
           </VectorParam>
           <VectorParam id="683"  name="anchor">
            <InterpolatingParam id="684" interp="linr"  time="0/1" value="0" leadInLength="0/1"  />
            <InterpolatingParam id="685" interp="linr"  time="0/1" value="0" leadInLength="0/1"  />
            <InterpolatingParam id="686" interp="linr"  time="0/1" value="0" leadInLength="0/1"  />
           </VectorParam>
          </Transformer>
          <Parameters>
           <VectorParam id="687"  name="sourceCrop">
            <InterpolatingParam id="688" interp="linr"  time="0/1" value="0" leadInLength="0/1"  />
            <InterpolatingParam id="689" interp="linr"  time="0/1" value="0" leadInLength="0/1"  />
            <InterpolatingParam id="690" interp="linr"  time="0/1" value="0" leadInLength="0/1"  />
            <InterpolatingParam id="691" interp="linr"  time="0/1" value="0" leadInLength="0/1"  />
           </VectorParam>
           <VectorParam id="692"  name="geometryCrop">
            <InterpolatingParam id="693" interp="linr"  time="-9999999/1" value="0" leadInLength="0/1"  />
            <InterpolatingParam id="694" interp="linr"  time="-9999999/1" value="0" leadInLength="0/1"  />
            <InterpolatingParam id="695" interp="linr"  time="-9999999/1" value="0" leadInLength="0/1"  />
            <InterpolatingParam id="696" interp="linr"  time="-9999999/1" value="0" leadInLength="0/1"  />
           </VectorParam>
           <InterpolatingParam id="697" interp="linr"  time="-9999999/1" value="1" leadInLength="0/1"  name="opacity"/>
           <InterpolatingParam id="698" interp="linr"  time="0/1" value="1" leadInLength="0/1"  name="cursorOpacity"/>
           <InterpolatingParam id="699" interp="linr"  time="0/1" value="1" leadInLength="0/1"  name="cursorScale"/>
          </Parameters>
          <Effects>
           <GenericEffect id="700" name = "CursorBaseEffectName" >
            <Parameters>
            <InterpolatingParam id="701" interp="linr"  time="-9999999/1" value="1" leadInLength="0/1"   name="cursorSize"/>
            <InterpolatingParam id="702" interp="linr"  time="-9999999/1" value="0" leadInLength="0/1"   name="highlightBlurRadius"/>
            <InterpolatingParam id="703" interp="linr"  time="-9999999/1" value="0" leadInLength="0/1"   name="highlightColorBlue"/>
            <InterpolatingParam id="704" interp="linr"  time="-9999999/1" value="255" leadInLength="0/1"   name="highlightColorGreen"/>
            <InterpolatingParam id="705" interp="linr"  time="-9999999/1" value="255" leadInLength="0/1"   name="highlightColorRed"/>
            <InterpolatingParam id="706" interp="linr"  time="-9999999/1" value="5" leadInLength="0/1"   name="highlightFeatherSize"/>
            <InterpolatingParam id="707" interp="linr"  time="-9999999/1" value="2" leadInLength="0/1"   name="highlightMagnification"/>
            <InterpolatingParam id="708" interp="linr"  time="-9999999/1" value="1" leadInLength="0/1"   name="highlightOpacity"/>
            <InterpolatingParam id="709" interp="linr"  time="-9999999/1" value="45" leadInLength="0/1"   name="highlightSize"/>
            <Parameter id="710"   name="highlightType">
             <Keyframes>
             <Keyframe id="711"  time="-9999999/1" value="0" leadInLength="0/1"  />
             </Keyframes>
            </Parameter>
            <InterpolatingParam id="712" interp="linr"  time="-9999999/1" value="0" leadInLength="0/1"   name="leftClickColorBlue"/>
            <InterpolatingParam id="713" interp="linr"  time="-9999999/1" value="0" leadInLength="0/1"   name="leftClickColorGreen"/>
            <InterpolatingParam id="714" interp="linr"  time="-9999999/1" value="255" leadInLength="0/1"   name="leftClickColorRed"/>
            <InterpolatingParam id="715" interp="linr"  time="-9999999/1" value="0.80000000000000004" leadInLength="0/1"   name="leftClickDuration"/>
            <InterpolatingParam id="716" interp="linr"  time="-9999999/1" value="20" leadInLength="0/1"   name="leftClickSize"/>
            <Parameter id="717"   name="leftClickSoundFilename">
             <Keyframes>
             <Keyframe id="718"  time="-9999999/1" value="" leadInLength="0/1"  />
             </Keyframes>
            </Parameter>
            <InterpolatingParam id="719" interp="linr"  time="-9999999/1" value="1" leadInLength="0/1"   name="leftClickSoundVolume"/>
            <Parameter id="720"   name="leftClickType">
             <Keyframes>
             <Keyframe id="721"  time="-9999999/1" value="0" leadInLength="0/1"  />
             </Keyframes>
            </Parameter>
            <InterpolatingParam id="722" interp="linr"  time="-9999999/1" value="1" leadInLength="0/1"   name="opacity"/>
            <InterpolatingParam id="723" interp="linr"  time="-9999999/1" value="255" leadInLength="0/1"   name="rightClickColorBlue"/>
            <InterpolatingParam id="724" interp="linr"  time="-9999999/1" value="0" leadInLength="0/1"   name="rightClickColorGreen"/>
            <InterpolatingParam id="725" interp="linr"  time="-9999999/1" value="0" leadInLength="0/1"   name="rightClickColorRed"/>
            <InterpolatingParam id="726" interp="linr"  time="-9999999/1" value="0.80000000000000004" leadInLength="0/1"   name="rightClickDuration"/>
            <InterpolatingParam id="727" interp="linr"  time="-9999999/1" value="20" leadInLength="0/1"   name="rightClickSize"/>
            <Parameter id="728"   name="rightClickSoundFilename">
             <Keyframes>
             <Keyframe id="729"  time="-9999999/1" value="" leadInLength="0/1"  />
             </Keyframes>
            </Parameter>
            <InterpolatingParam id="730" interp="linr"  time="-9999999/1" value="1" leadInLength="0/1"   name="rightClickSoundVolume"/>
            <Parameter id="731"   name="rightClickType">
             <Keyframes>
             <Keyframe id="732"  time="-9999999/1" value="0" leadInLength="0/1"  />
             </Keyframes>
            </Parameter>
            </Parameters>
           </GenericEffect>
          </Effects>
          <Attributes>
           <Attribute id="733" value="" name="ident"/>
          </Attributes>
          <MetaData>
           <entry key="AutoAppliedSmartFocus" val="False"/>
           <entry key="WinSubProjectDisplayName" val=""/>
          </MetaData>
          <ExtraData>
           <Entry key="ZoomPanBin">
            <ZoomPanBin id="734"  >
             <ZoomPanKeyframes>
              <ZoomPanKeyframe id="735" timeRangeEnd="-9999999/1" timeRangeDuration="0/1" interpolaterName="linr"  />
             </ZoomPanKeyframes>
            </ZoomPanBin>
           </Entry>
           <Entry key="CursorEffectBin">
            <CursorEffectBin id="736"  >
             <CursorEffectKeyframes>
              <CursorEffectKeyframe id="737" timeRangeEnd="-9999999/1" timeRangeDuration="0/1" interpolaterName=""  />
             </CursorEffectKeyframes>
            </CursorEffectBin>
           </Entry>
          </ExtraData>
         </ScreenVMFile>
         <ScreenVMFile id="738" start="14063" duration="6" scalar="1/1" mediaStart="14165/1" mediaDuration="6/1" trackNumber="0" src="9" >
          <Transformer>
           <VectorParam id="739"  name="translation">
            <InterpolatingParam id="740" interp="linr"  time="-9999999/1" value="-63.609022556336811" leadInLength="0/1"  />
            <InterpolatingParam id="741" interp="linr"  time="-9999999/1" value="2.7640112421076447e-011" leadInLength="0/1"  />
            <InterpolatingParam id="742" interp="linr"  time="-9999999/1" value="0" leadInLength="0/1"  />
           </VectorParam>
           <VectorParam id="743"  name="rotation">
            <InterpolatingParam id="744" interp="linr"  time="-9999999/1" value="0" leadInLength="0/1"  />
            <InterpolatingParam id="745" interp="linr"  time="-9999999/1" value="0" leadInLength="0/1"  />
            <InterpolatingParam id="746" interp="linr"  time="-9999999/1" value="0" leadInLength="0/1"  />
           </VectorParam>
           <VectorParam id="747"  name="shear">
            <InterpolatingParam id="748" interp="linr"  time="-9999999/1" value="0" leadInLength="0/1"  />
            <InterpolatingParam id="749" interp="linr"  time="-9999999/1" value="0" leadInLength="0/1"  />
            <InterpolatingParam id="750" interp="linr"  time="-9999999/1" value="0" leadInLength="0/1"  />
           </VectorParam>
           <VectorParam id="751"  name="scale">
            <InterpolatingParam id="752" interp="linr"  time="-9999999/1" value="0.6666666666667781" leadInLength="0/1"  />
            <InterpolatingParam id="753" interp="linr"  time="-9999999/1" value="0.66666666666677832" leadInLength="0/1"  />
            <InterpolatingParam id="754" interp="linr"  time="-9999999/1" value="1" leadInLength="0/1"  />
           </VectorParam>
           <VectorParam id="755"  name="anchor">
            <InterpolatingParam id="756" interp="linr"  time="0/1" value="0" leadInLength="0/1"  />
            <InterpolatingParam id="757" interp="linr"  time="0/1" value="0" leadInLength="0/1"  />
            <InterpolatingParam id="758" interp="linr"  time="0/1" value="0" leadInLength="0/1"  />
           </VectorParam>
          </Transformer>
          <Parameters>
           <VectorParam id="759"  name="sourceCrop">
            <InterpolatingParam id="760" interp="linr"  time="0/1" value="0" leadInLength="0/1"  />
            <InterpolatingParam id="761" interp="linr"  time="0/1" value="0" leadInLength="0/1"  />
            <InterpolatingParam id="762" interp="linr"  time="0/1" value="0" leadInLength="0/1"  />
            <InterpolatingParam id="763" interp="linr"  time="0/1" value="0" leadInLength="0/1"  />
           </VectorParam>
           <VectorParam id="764"  name="geometryCrop">
            <InterpolatingParam id="765" interp="linr"  time="-9999999/1" value="0" leadInLength="0/1"  />
            <InterpolatingParam id="766" interp="linr"  time="-9999999/1" value="0" leadInLength="0/1"  />
            <InterpolatingParam id="767" interp="linr"  time="-9999999/1" value="0" leadInLength="0/1"  />
            <InterpolatingParam id="768" interp="linr"  time="-9999999/1" value="0" leadInLength="0/1"  />
           </VectorParam>
           <InterpolatingParam id="769" interp="linr"  time="-9999999/1" value="1" leadInLength="0/1"  name="opacity"/>
           <InterpolatingParam id="770" interp="linr"  time="0/1" value="1" leadInLength="0/1"  name="cursorOpacity"/>
           <InterpolatingParam id="771" interp="linr"  time="0/1" value="1" leadInLength="0/1"  name="cursorScale"/>
          </Parameters>
          <Effects>
           <GenericEffect id="772" name = "CursorBaseEffectName" >
            <Parameters>
            <InterpolatingParam id="773" interp="linr"  time="-9999999/1" value="1" leadInLength="0/1"   name="cursorSize"/>
            <InterpolatingParam id="774" interp="linr"  time="-9999999/1" value="0" leadInLength="0/1"   name="highlightBlurRadius"/>
            <InterpolatingParam id="775" interp="linr"  time="-9999999/1" value="0" leadInLength="0/1"   name="highlightColorBlue"/>
            <InterpolatingParam id="776" interp="linr"  time="-9999999/1" value="255" leadInLength="0/1"   name="highlightColorGreen"/>
            <InterpolatingParam id="777" interp="linr"  time="-9999999/1" value="255" leadInLength="0/1"   name="highlightColorRed"/>
            <InterpolatingParam id="778" interp="linr"  time="-9999999/1" value="5" leadInLength="0/1"   name="highlightFeatherSize"/>
            <InterpolatingParam id="779" interp="linr"  time="-9999999/1" value="2" leadInLength="0/1"   name="highlightMagnification"/>
            <InterpolatingParam id="780" interp="linr"  time="-9999999/1" value="1" leadInLength="0/1"   name="highlightOpacity"/>
            <InterpolatingParam id="781" interp="linr"  time="-9999999/1" value="45" leadInLength="0/1"   name="highlightSize"/>
            <Parameter id="782"   name="highlightType">
             <Keyframes>
             <Keyframe id="783"  time="-9999999/1" value="0" leadInLength="0/1"  />
             </Keyframes>
            </Parameter>
            <InterpolatingParam id="784" interp="linr"  time="-9999999/1" value="0" leadInLength="0/1"   name="leftClickColorBlue"/>
            <InterpolatingParam id="785" interp="linr"  time="-9999999/1" value="0" leadInLength="0/1"   name="leftClickColorGreen"/>
            <InterpolatingParam id="786" interp="linr"  time="-9999999/1" value="255" leadInLength="0/1"   name="leftClickColorRed"/>
            <InterpolatingParam id="787" interp="linr"  time="-9999999/1" value="0.80000000000000004" leadInLength="0/1"   name="leftClickDuration"/>
            <InterpolatingParam id="788" interp="linr"  time="-9999999/1" value="20" leadInLength="0/1"   name="leftClickSize"/>
            <Parameter id="789"   name="leftClickSoundFilename">
             <Keyframes>
             <Keyframe id="790"  time="-9999999/1" value="" leadInLength="0/1"  />
             </Keyframes>
            </Parameter>
            <InterpolatingParam id="791" interp="linr"  time="-9999999/1" value="1" leadInLength="0/1"   name="leftClickSoundVolume"/>
            <Parameter id="792"   name="leftClickType">
             <Keyframes>
             <Keyframe id="793"  time="-9999999/1" value="0" leadInLength="0/1"  />
             </Keyframes>
            </Parameter>
            <InterpolatingParam id="794" interp="linr"  time="-9999999/1" value="1" leadInLength="0/1"   name="opacity"/>
            <InterpolatingParam id="795" interp="linr"  time="-9999999/1" value="255" leadInLength="0/1"   name="rightClickColorBlue"/>
            <InterpolatingParam id="796" interp="linr"  time="-9999999/1" value="0" leadInLength="0/1"   name="rightClickColorGreen"/>
            <InterpolatingParam id="797" interp="linr"  time="-9999999/1" value="0" leadInLength="0/1"   name="rightClickColorRed"/>
            <InterpolatingParam id="798" interp="linr"  time="-9999999/1" value="0.80000000000000004" leadInLength="0/1"   name="rightClickDuration"/>
            <InterpolatingParam id="799" interp="linr"  time="-9999999/1" value="20" leadInLength="0/1"   name="rightClickSize"/>
            <Parameter id="800"   name="rightClickSoundFilename">
             <Keyframes>
             <Keyframe id="801"  time="-9999999/1" value="" leadInLength="0/1"  />
             </Keyframes>
            </Parameter>
            <InterpolatingParam id="802" interp="linr"  time="-9999999/1" value="1" leadInLength="0/1"   name="rightClickSoundVolume"/>
            <Parameter id="803"   name="rightClickType">
             <Keyframes>
             <Keyframe id="804"  time="-9999999/1" value="0" leadInLength="0/1"  />
             </Keyframes>
            </Parameter>
            </Parameters>
           </GenericEffect>
          </Effects>
          <Attributes>
           <Attribute id="805" value="" name="ident"/>
          </Attributes>
          <MetaData>
           <entry key="AutoAppliedSmartFocus" val="False"/>
           <entry key="WinSubProjectDisplayName" val=""/>
          </MetaData>
          <ExtraData>
           <Entry key="ZoomPanBin">
            <ZoomPanBin id="806"  >
             <ZoomPanKeyframes>
              <ZoomPanKeyframe id="807" timeRangeEnd="-9999999/1" timeRangeDuration="0/1" interpolaterName="linr"  />
             </ZoomPanKeyframes>
            </ZoomPanBin>
           </Entry>
           <Entry key="CursorEffectBin">
            <CursorEffectBin id="808"  >
             <CursorEffectKeyframes>
              <CursorEffectKeyframe id="809" timeRangeEnd="-9999999/1" timeRangeDuration="0/1" interpolaterName=""  />
             </CursorEffectKeyframes>
            </CursorEffectBin>
           </Entry>
          </ExtraData>
         </ScreenVMFile>
         <ScreenVMFile id="810" start="14069" duration="4632" scalar="1/1" mediaStart="14288/1" mediaDuration="4632/1" trackNumber="0" src="9" >
          <Transformer>
           <VectorParam id="811"  name="translation">
            <InterpolatingParam id="812" interp="linr"  time="-9999999/1" value="1.0103917702508625e-011" leadInLength="0/1"  />
            <InterpolatingParam id="813" interp="linr"  time="-9999999/1" value="-1.0226619551189341e-010" leadInLength="0/1"  />
            <InterpolatingParam id="814" interp="linr"  time="-9999999/1" value="0" leadInLength="0/1"  />
           </VectorParam>
           <VectorParam id="815"  name="rotation">
            <InterpolatingParam id="816" interp="linr"  time="-9999999/1" value="0" leadInLength="0/1"  />
            <InterpolatingParam id="817" interp="linr"  time="-9999999/1" value="0" leadInLength="0/1"  />
            <InterpolatingParam id="818" interp="linr"  time="-9999999/1" value="0" leadInLength="0/1"  />
           </VectorParam>
           <VectorParam id="819"  name="shear">
            <InterpolatingParam id="820" interp="linr"  time="-9999999/1" value="0" leadInLength="0/1"  />
            <InterpolatingParam id="821" interp="linr"  time="-9999999/1" value="0" leadInLength="0/1"  />
            <InterpolatingParam id="822" interp="linr"  time="-9999999/1" value="0" leadInLength="0/1"  />
           </VectorParam>
           <VectorParam id="823"  name="scale">
            <InterpolatingParam id="824" interp="linr"  time="-9999999/1" value="0.6666666666667781" leadInLength="0/1"  />
            <InterpolatingParam id="825" interp="linr"  time="-9999999/1" value="0.66666666666677832" leadInLength="0/1"  />
            <InterpolatingParam id="826" interp="linr"  time="-9999999/1" value="1" leadInLength="0/1"  />
           </VectorParam>
           <VectorParam id="827"  name="anchor">
            <InterpolatingParam id="828" interp="linr"  time="0/1" value="0" leadInLength="0/1"  />
            <InterpolatingParam id="829" interp="linr"  time="0/1" value="0" leadInLength="0/1"  />
            <InterpolatingParam id="830" interp="linr"  time="0/1" value="0" leadInLength="0/1"  />
           </VectorParam>
          </Transformer>
          <Parameters>
           <VectorParam id="831"  name="sourceCrop">
            <InterpolatingParam id="832" interp="linr"  time="0/1" value="0" leadInLength="0/1"  />
            <InterpolatingParam id="833" interp="linr"  time="0/1" value="0" leadInLength="0/1"  />
            <InterpolatingParam id="834" interp="linr"  time="0/1" value="0" leadInLength="0/1"  />
            <InterpolatingParam id="835" interp="linr"  time="0/1" value="0" leadInLength="0/1"  />
           </VectorParam>
           <VectorParam id="836"  name="geometryCrop">
            <InterpolatingParam id="837" interp="linr"  time="-9999999/1" value="0" leadInLength="0/1"  />
            <InterpolatingParam id="838" interp="linr"  time="-9999999/1" value="0" leadInLength="0/1"  />
            <InterpolatingParam id="839" interp="linr"  time="-9999999/1" value="0" leadInLength="0/1"  />
            <InterpolatingParam id="840" interp="linr"  time="-9999999/1" value="0" leadInLength="0/1"  />
           </VectorParam>
           <InterpolatingParam id="841" interp="linr"  time="-9999999/1" value="1" leadInLength="0/1"  name="opacity"/>
           <InterpolatingParam id="842" interp="linr"  time="0/1" value="1" leadInLength="0/1"  name="cursorOpacity"/>
           <InterpolatingParam id="843" interp="linr"  time="0/1" value="1" leadInLength="0/1"  name="cursorScale"/>
          </Parameters>
          <Effects>
           <GenericEffect id="844" name = "CursorBaseEffectName" >
            <Parameters>
            <InterpolatingParam id="845" interp="linr"  time="-9999999/1" value="1" leadInLength="0/1"   name="cursorSize"/>
            <InterpolatingParam id="846" interp="linr"  time="-9999999/1" value="0" leadInLength="0/1"   name="highlightBlurRadius"/>
            <InterpolatingParam id="847" interp="linr"  time="-9999999/1" value="0" leadInLength="0/1"   name="highlightColorBlue"/>
            <InterpolatingParam id="848" interp="linr"  time="-9999999/1" value="255" leadInLength="0/1"   name="highlightColorGreen"/>
            <InterpolatingParam id="849" interp="linr"  time="-9999999/1" value="255" leadInLength="0/1"   name="highlightColorRed"/>
            <InterpolatingParam id="850" interp="linr"  time="-9999999/1" value="5" leadInLength="0/1"   name="highlightFeatherSize"/>
            <InterpolatingParam id="851" interp="linr"  time="-9999999/1" value="2" leadInLength="0/1"   name="highlightMagnification"/>
            <InterpolatingParam id="852" interp="linr"  time="-9999999/1" value="1" leadInLength="0/1"   name="highlightOpacity"/>
            <InterpolatingParam id="853" interp="linr"  time="-9999999/1" value="45" leadInLength="0/1"   name="highlightSize"/>
            <Parameter id="854"   name="highlightType">
             <Keyframes>
             <Keyframe id="855"  time="-9999999/1" value="0" leadInLength="0/1"  />
             </Keyframes>
            </Parameter>
            <InterpolatingParam id="856" interp="linr"  time="-9999999/1" value="0" leadInLength="0/1"   name="leftClickColorBlue"/>
            <InterpolatingParam id="857" interp="linr"  time="-9999999/1" value="0" leadInLength="0/1"   name="leftClickColorGreen"/>
            <InterpolatingParam id="858" interp="linr"  time="-9999999/1" value="255" leadInLength="0/1"   name="leftClickColorRed"/>
            <InterpolatingParam id="859" interp="linr"  time="-9999999/1" value="0.80000000000000004" leadInLength="0/1"   name="leftClickDuration"/>
            <InterpolatingParam id="860" interp="linr"  time="-9999999/1" value="20" leadInLength="0/1"   name="leftClickSize"/>
            <Parameter id="861"   name="leftClickSoundFilename">
             <Keyframes>
             <Keyframe id="862"  time="-9999999/1" value="" leadInLength="0/1"  />
             </Keyframes>
            </Parameter>
            <InterpolatingParam id="863" interp="linr"  time="-9999999/1" value="1" leadInLength="0/1"   name="leftClickSoundVolume"/>
            <Parameter id="864"   name="leftClickType">
             <Keyframes>
             <Keyframe id="865"  time="-9999999/1" value="0" leadInLength="0/1"  />
             </Keyframes>
            </Parameter>
            <InterpolatingParam id="866" interp="linr"  time="-9999999/1" value="1" leadInLength="0/1"   name="opacity"/>
            <InterpolatingParam id="867" interp="linr"  time="-9999999/1" value="255" leadInLength="0/1"   name="rightClickColorBlue"/>
            <InterpolatingParam id="868" interp="linr"  time="-9999999/1" value="0" leadInLength="0/1"   name="rightClickColorGreen"/>
            <InterpolatingParam id="869" interp="linr"  time="-9999999/1" value="0" leadInLength="0/1"   name="rightClickColorRed"/>
            <InterpolatingParam id="870" interp="linr"  time="-9999999/1" value="0.80000000000000004" leadInLength="0/1"   name="rightClickDuration"/>
            <InterpolatingParam id="871" interp="linr"  time="-9999999/1" value="20" leadInLength="0/1"   name="rightClickSize"/>
            <Parameter id="872"   name="rightClickSoundFilename">
             <Keyframes>
             <Keyframe id="873"  time="-9999999/1" value="" leadInLength="0/1"  />
             </Keyframes>
            </Parameter>
            <InterpolatingParam id="874" interp="linr"  time="-9999999/1" value="1" leadInLength="0/1"   name="rightClickSoundVolume"/>
            <Parameter id="875"   name="rightClickType">
             <Keyframes>
             <Keyframe id="876"  time="-9999999/1" value="0" leadInLength="0/1"  />
             </Keyframes>
            </Parameter>
            </Parameters>
           </GenericEffect>
          </Effects>
          <Attributes>
           <Attribute id="877" value="" name="ident"/>
          </Attributes>
          <MetaData>
           <entry key="AutoAppliedSmartFocus" val="False"/>
           <entry key="WinSubProjectDisplayName" val=""/>
          </MetaData>
          <ExtraData>
           <Entry key="ZoomPanBin">
            <ZoomPanBin id="878"  >
             <ZoomPanKeyframes>
              <ZoomPanKeyframe id="879" timeRangeEnd="-9999999/1" timeRangeDuration="0/1" interpolaterName="linr"  />
             </ZoomPanKeyframes>
            </ZoomPanBin>
           </Entry>
           <Entry key="CursorEffectBin">
            <CursorEffectBin id="880"  >
             <CursorEffectKeyframes>
              <CursorEffectKeyframe id="881" timeRangeEnd="-9999999/1" timeRangeDuration="0/1" interpolaterName=""  />
             </CursorEffectKeyframes>
            </CursorEffectBin>
           </Entry>
          </ExtraData>
         </ScreenVMFile>
        </Medias>
       </GenericTrack>
       <GenericTrack id="882"  >
        <Attributes>
         <Attribute id="883" value="" name="ident"/>
         <Attribute id="884" value="0" name="audioMuted"/>
         <Attribute id="885" value="0" name="videoHidden"/>
        </Attributes>
        <MetaData>
         <entry key="IsLocked" val="False"/>
         <entry key="WinTrackHeight" val="62"/>
        </MetaData>
        <Medias>
        </Medias>
       </GenericTrack>
       <GenericTrack id="886"  >
        <Attributes>
         <Attribute id="887" value="" name="ident"/>
         <Attribute id="888" value="0" name="audioMuted"/>
         <Attribute id="889" value="0" name="videoHidden"/>
        </Attributes>
        <MetaData>
         <entry key="IsLocked" val="False"/>
         <entry key="WinTrackHeight" val="62"/>
        </MetaData>
        <Medias>
        </Medias>
       </GenericTrack>
       <GenericTrack id="890"  >
        <Attributes>
         <Attribute id="891" value="" name="ident"/>
         <Attribute id="892" value="0" name="audioMuted"/>
         <Attribute id="893" value="0" name="videoHidden"/>
        </Attributes>
        <MetaData>
         <entry key="IsLocked" val="False"/>
         <entry key="WinTrackHeight" val="62"/>
        </MetaData>
        <Medias>
        </Medias>
       </GenericTrack>
      </Tracks>
     </GenericMixer>
    <CaptionAttributes id="894"  >
     <Attribute id="895" value="1" name="captionsEnabled"/>
     <Attribute id="896" value="Arial" name="captionsFontName"/>
     <Attribute id="897" value="20" name="captionsFontSize"/>
     <Attribute id="898" value="(0,0,0,255)" name="captionsBackgroundColor"/>
     <Attribute id="899" value="(255,255,255,255)" name="captionsForegroundColor"/>
     <Attribute id="900" value="en" name="lang"/>
     <Attribute id="901" value="0" name="captionsAlignment"/>
     <Attribute id="902" value="1" name="captionsDefaultFontSize"/>
     <Attribute id="903" value="0.5" name="captionsOpacity"/>
     <Attribute id="904" value="1" name="captionsBackgroundEnabled"/>
     <Attribute id="905" value="1" name="captionsBackgroundOnlyAroundText"/>
    </CaptionAttributes>
    <Parameters>
     <VectorParam id="906"  name="eyePosition">
      <InterpolatingParam id="907" interp="linr"  time="0/1" value="0" leadInLength="0/1"  />
      <InterpolatingParam id="908" interp="linr"  time="0/1" value="0" leadInLength="0/1"  />
      <InterpolatingParam id="909" interp="linr"  time="0/1" value="3000" leadInLength="0/1"  />
     </VectorParam>
     <VectorParam id="910"  name="eyeLookAtPosition">
      <InterpolatingParam id="911" interp="linr"  time="0/1" value="0" leadInLength="0/1"  />
      <InterpolatingParam id="912" interp="linr"  time="0/1" value="0" leadInLength="0/1"  />
      <InterpolatingParam id="913" interp="linr"  time="0/1" value="0" leadInLength="0/1"  />
     </VectorParam>
     <VectorParam id="914"  name="eyeUpVector">
      <InterpolatingParam id="915" interp="linr"  time="0/1" value="0" leadInLength="0/1"  />
      <InterpolatingParam id="916" interp="linr"  time="0/1" value="1" leadInLength="0/1"  />
      <InterpolatingParam id="917" interp="linr"  time="0/1" value="0" leadInLength="0/1"  />
     </VectorParam>
     <InterpolatingParam id="918" interp="linr"  time="0/1" value="0.23885785" leadInLength="0/1"  name="fov"/>
     <InterpolatingParam id="919" interp="linr"  time="0/1" value="1.5" leadInLength="0/1"  name="nearClipDistance"/>
     <InterpolatingParam id="920" interp="linr"  time="0/1" value="6000" leadInLength="0/1"  name="farClipDistance"/>
    </Parameters>
   </Timeline>
  </Project>
 </GoProject>
</CSMLData>

</Project_Data>
